<svg width="710" height="944" viewBox="0 0 710 944" fill="none" xmlns="http://www.w3.org/2000/svg">
<rect width="710" height="944" fill="#FBBF24"/>
<path d="M94.1667 38.6666H95C95.8841 38.6666 96.7319 39.0178 97.357 39.6429C97.9821 40.2681 98.3333 41.1159 98.3333 42C98.3333 42.884 97.9821 43.7319 97.357 44.357C96.7319 44.9821 95.8841 45.3333 95 45.3333H94.1667M94.1667 38.6666H82.5V46.1666C82.5 47.0507 82.8512 47.8985 83.4763 48.5236C84.1014 49.1488 84.9493 49.5 85.8333 49.5H90.8333C91.7174 49.5 92.5652 49.1488 93.1904 48.5236C93.8155 47.8985 94.1667 47.0507 94.1667 46.1666V38.6666ZM85 33.6666V35.3333M88.3333 33.6666V35.3333M91.6667 33.6666V35.3333" stroke="#09090B" stroke-width="2" stroke-linecap="round" stroke-linejoin="round"/>
<path d="M109.011 48V36.3636H113.67C114.527 36.3636 115.241 36.4905 115.812 36.7443C116.384 36.9981 116.814 37.3504 117.102 37.8011C117.39 38.2481 117.534 38.7633 117.534 39.3466C117.534 39.8011 117.443 40.2008 117.261 40.5455C117.08 40.8864 116.83 41.1667 116.511 41.3864C116.197 41.6023 115.837 41.7557 115.432 41.8466V41.9602C115.875 41.9792 116.29 42.1042 116.676 42.3352C117.066 42.5663 117.383 42.8902 117.625 43.3068C117.867 43.7197 117.989 44.2121 117.989 44.7841C117.989 45.4015 117.835 45.9527 117.528 46.4375C117.225 46.9186 116.777 47.2992 116.182 47.5795C115.587 47.8598 114.854 48 113.983 48H109.011ZM111.472 45.9886H113.477C114.163 45.9886 114.663 45.858 114.977 45.5966C115.292 45.3314 115.449 44.9792 115.449 44.5398C115.449 44.2178 115.371 43.9337 115.216 43.6875C115.061 43.4413 114.839 43.2481 114.551 43.108C114.267 42.9678 113.928 42.8977 113.534 42.8977H111.472V45.9886ZM111.472 41.233H113.295C113.633 41.233 113.932 41.1742 114.193 41.0568C114.458 40.9356 114.667 40.7652 114.818 40.5455C114.973 40.3258 115.051 40.0625 115.051 39.7557C115.051 39.3352 114.902 38.9962 114.602 38.7386C114.307 38.4811 113.886 38.3523 113.341 38.3523H111.472V41.233ZM125.461 44.2841V39.2727H127.881V48H125.557V46.4148H125.466C125.269 46.9261 124.942 47.3371 124.483 47.6477C124.029 47.9583 123.474 48.1136 122.819 48.1136C122.235 48.1136 121.722 47.9811 121.279 47.7159C120.836 47.4508 120.489 47.0739 120.239 46.5852C119.993 46.0966 119.868 45.5114 119.864 44.8295V39.2727H122.284V44.3977C122.288 44.9129 122.427 45.3201 122.699 45.6193C122.972 45.9186 123.338 46.0682 123.796 46.0682C124.088 46.0682 124.36 46.0019 124.614 45.8693C124.868 45.733 125.072 45.5322 125.228 45.267C125.387 45.0019 125.464 44.6742 125.461 44.2841ZM131.631 51.2727C131.325 51.2727 131.037 51.2481 130.768 51.1989C130.503 51.1534 130.283 51.0947 130.109 51.0227L130.654 49.2159C130.938 49.303 131.194 49.3504 131.421 49.358C131.652 49.3655 131.851 49.3125 132.018 49.1989C132.188 49.0852 132.327 48.892 132.433 48.6193L132.575 48.25L129.444 39.2727H131.989L133.796 45.6818H133.887L135.711 39.2727H138.274L134.881 48.9432C134.719 49.4129 134.497 49.822 134.217 50.1705C133.94 50.5227 133.59 50.7936 133.166 50.983C132.741 51.1761 132.23 51.2727 131.631 51.2727ZM143.901 36.3636H146.935L150.139 44.1818H150.276L153.48 36.3636H156.514V48H154.128V40.4261H154.031L151.02 47.9432H149.395L146.384 40.3977H146.287V48H143.901V36.3636ZM162.793 48.1705C161.895 48.1705 161.123 47.9886 160.475 47.625C159.831 47.2576 159.335 46.7386 158.986 46.0682C158.638 45.3939 158.464 44.5966 158.464 43.6761C158.464 42.7784 158.638 41.9905 158.986 41.3125C159.335 40.6345 159.825 40.1061 160.458 39.7273C161.094 39.3485 161.841 39.1591 162.697 39.1591C163.272 39.1591 163.808 39.2519 164.305 39.4375C164.805 39.6193 165.24 39.8939 165.611 40.2614C165.986 40.6288 166.278 41.0909 166.486 41.6477C166.695 42.2008 166.799 42.8485 166.799 43.5909V44.2557H159.43V42.7557H164.52C164.52 42.4072 164.445 42.0985 164.293 41.8295C164.142 41.5606 163.931 41.3504 163.662 41.1989C163.397 41.0436 163.089 40.9659 162.736 40.9659C162.369 40.9659 162.043 41.0511 161.759 41.2216C161.479 41.3883 161.259 41.6136 161.1 41.8977C160.941 42.178 160.859 42.4905 160.856 42.8352V44.2614C160.856 44.6932 160.935 45.0663 161.094 45.3807C161.257 45.6951 161.486 45.9375 161.782 46.108C162.077 46.2784 162.428 46.3636 162.833 46.3636C163.102 46.3636 163.348 46.3258 163.572 46.25C163.795 46.1742 163.986 46.0606 164.145 45.9091C164.305 45.7576 164.426 45.572 164.509 45.3523L166.748 45.5C166.634 46.0379 166.401 46.5076 166.049 46.9091C165.7 47.3068 165.25 47.6174 164.697 47.8409C164.147 48.0606 163.513 48.1705 162.793 48.1705ZM183.034 40.4375H180.545C180.5 40.1155 180.407 39.8295 180.267 39.5795C180.127 39.3258 179.947 39.1098 179.727 38.9318C179.508 38.7538 179.254 38.6174 178.966 38.5227C178.682 38.428 178.373 38.3807 178.04 38.3807C177.437 38.3807 176.913 38.5303 176.466 38.8295C176.019 39.125 175.672 39.5568 175.426 40.125C175.18 40.6894 175.057 41.375 175.057 42.1818C175.057 43.0114 175.18 43.7083 175.426 44.2727C175.676 44.8371 176.025 45.2633 176.472 45.5511C176.919 45.839 177.436 45.983 178.023 45.983C178.352 45.983 178.657 45.9394 178.937 45.8523C179.222 45.7652 179.473 45.6383 179.693 45.4716C179.913 45.3011 180.095 45.0947 180.239 44.8523C180.386 44.6098 180.489 44.3333 180.545 44.0227L183.034 44.0341C182.97 44.5682 182.809 45.0833 182.551 45.5795C182.297 46.072 181.954 46.5133 181.523 46.9034C181.095 47.2898 180.583 47.5966 179.989 47.8239C179.398 48.0473 178.729 48.1591 177.983 48.1591C176.945 48.1591 176.017 47.9242 175.199 47.4545C174.384 46.9848 173.74 46.3049 173.267 45.4148C172.797 44.5246 172.562 43.447 172.562 42.1818C172.562 40.9129 172.801 39.8333 173.278 38.9432C173.756 38.053 174.403 37.375 175.222 36.9091C176.04 36.4394 176.96 36.2045 177.983 36.2045C178.657 36.2045 179.282 36.2992 179.858 36.4886C180.437 36.678 180.951 36.9545 181.398 37.3182C181.845 37.678 182.208 38.1193 182.489 38.642C182.773 39.1648 182.954 39.7633 183.034 40.4375ZM189.016 48.1705C188.133 48.1705 187.37 47.983 186.726 47.608C186.086 47.2292 185.592 46.7027 185.243 46.0284C184.895 45.3504 184.721 44.5644 184.721 43.6705C184.721 42.7689 184.895 41.9811 185.243 41.3068C185.592 40.6288 186.086 40.1023 186.726 39.7273C187.37 39.3485 188.133 39.1591 189.016 39.1591C189.899 39.1591 190.66 39.3485 191.3 39.7273C191.944 40.1023 192.44 40.6288 192.789 41.3068C193.137 41.9811 193.311 42.7689 193.311 43.6705C193.311 44.5644 193.137 45.3504 192.789 46.0284C192.44 46.7027 191.944 47.2292 191.3 47.608C190.66 47.983 189.899 48.1705 189.016 48.1705ZM189.027 46.2955C189.429 46.2955 189.764 46.1818 190.033 45.9545C190.302 45.7235 190.505 45.4091 190.641 45.0114C190.781 44.6136 190.851 44.161 190.851 43.6534C190.851 43.1458 190.781 42.6932 190.641 42.2955C190.505 41.8977 190.302 41.5833 190.033 41.3523C189.764 41.1212 189.429 41.0057 189.027 41.0057C188.622 41.0057 188.281 41.1212 188.005 41.3523C187.732 41.5833 187.525 41.8977 187.385 42.2955C187.249 42.6932 187.181 43.1458 187.181 43.6534C187.181 44.161 187.249 44.6136 187.385 45.0114C187.525 45.4091 187.732 45.7235 188.005 45.9545C188.281 46.1818 188.622 46.2955 189.027 46.2955ZM199.898 39.2727V41.0909H194.512V39.2727H199.898ZM195.745 48V38.642C195.745 38.0095 195.868 37.4848 196.114 37.0682C196.364 36.6515 196.705 36.339 197.137 36.1307C197.569 35.9223 198.059 35.8182 198.609 35.8182C198.98 35.8182 199.319 35.8466 199.626 35.9034C199.936 35.9602 200.167 36.0114 200.319 36.0568L199.887 37.875C199.792 37.8447 199.675 37.8163 199.535 37.7898C199.398 37.7633 199.258 37.75 199.114 37.75C198.758 37.75 198.51 37.8333 198.37 38C198.23 38.1629 198.16 38.392 198.16 38.6875V48H195.745ZM206.39 39.2727V41.0909H201.004V39.2727H206.39ZM202.237 48V38.642C202.237 38.0095 202.36 37.4848 202.606 37.0682C202.856 36.6515 203.197 36.339 203.629 36.1307C204.061 35.9223 204.551 35.8182 205.101 35.8182C205.472 35.8182 205.811 35.8466 206.118 35.9034C206.428 35.9602 206.659 36.0114 206.811 36.0568L206.379 37.875C206.284 37.8447 206.167 37.8163 206.027 37.7898C205.89 37.7633 205.75 37.75 205.606 37.75C205.25 37.75 205.002 37.8333 204.862 38C204.722 38.1629 204.652 38.392 204.652 38.6875V48H202.237ZM211.854 48.1705C210.956 48.1705 210.183 47.9886 209.536 47.625C208.892 47.2576 208.395 46.7386 208.047 46.0682C207.699 45.3939 207.524 44.5966 207.524 43.6761C207.524 42.7784 207.699 41.9905 208.047 41.3125C208.395 40.6345 208.886 40.1061 209.519 39.7273C210.155 39.3485 210.901 39.1591 211.757 39.1591C212.333 39.1591 212.869 39.2519 213.365 39.4375C213.865 39.6193 214.301 39.8939 214.672 40.2614C215.047 40.6288 215.339 41.0909 215.547 41.6477C215.755 42.2008 215.859 42.8485 215.859 43.5909V44.2557H208.49V42.7557H213.581C213.581 42.4072 213.505 42.0985 213.354 41.8295C213.202 41.5606 212.992 41.3504 212.723 41.1989C212.458 41.0436 212.149 40.9659 211.797 40.9659C211.43 40.9659 211.104 41.0511 210.82 41.2216C210.539 41.3883 210.32 41.6136 210.161 41.8977C210.002 42.178 209.92 42.4905 209.916 42.8352V44.2614C209.916 44.6932 209.996 45.0663 210.155 45.3807C210.318 45.6951 210.547 45.9375 210.842 46.108C211.138 46.2784 211.488 46.3636 211.894 46.3636C212.163 46.3636 212.409 46.3258 212.632 46.25C212.856 46.1742 213.047 46.0606 213.206 45.9091C213.365 45.7576 213.486 45.572 213.57 45.3523L215.808 45.5C215.695 46.0379 215.462 46.5076 215.109 46.9091C214.761 47.3068 214.31 47.6174 213.757 47.8409C213.208 48.0606 212.574 48.1705 211.854 48.1705ZM221.736 48.1705C220.839 48.1705 220.066 47.9886 219.418 47.625C218.774 47.2576 218.278 46.7386 217.929 46.0682C217.581 45.3939 217.407 44.5966 217.407 43.6761C217.407 42.7784 217.581 41.9905 217.929 41.3125C218.278 40.6345 218.769 40.1061 219.401 39.7273C220.037 39.3485 220.784 39.1591 221.64 39.1591C222.215 39.1591 222.751 39.2519 223.248 39.4375C223.748 39.6193 224.183 39.8939 224.554 40.2614C224.929 40.6288 225.221 41.0909 225.429 41.6477C225.638 42.2008 225.742 42.8485 225.742 43.5909V44.2557H218.373V42.7557H223.464C223.464 42.4072 223.388 42.0985 223.236 41.8295C223.085 41.5606 222.875 41.3504 222.606 41.1989C222.34 41.0436 222.032 40.9659 221.679 40.9659C221.312 40.9659 220.986 41.0511 220.702 41.2216C220.422 41.3883 220.202 41.6136 220.043 41.8977C219.884 42.178 219.803 42.4905 219.799 42.8352V44.2614C219.799 44.6932 219.878 45.0663 220.037 45.3807C220.2 45.6951 220.429 45.9375 220.725 46.108C221.02 46.2784 221.371 46.3636 221.776 46.3636C222.045 46.3636 222.291 46.3258 222.515 46.25C222.738 46.1742 222.929 46.0606 223.089 45.9091C223.248 45.7576 223.369 45.572 223.452 45.3523L225.691 45.5C225.577 46.0379 225.344 46.5076 224.992 46.9091C224.644 47.3068 224.193 47.6174 223.64 47.8409C223.09 48.0606 222.456 48.1705 221.736 48.1705Z" fill="#09090B"/>
<mask id="mask0_1_4809" style="mask-type:alpha" maskUnits="userSpaceOnUse" x="234" y="287" width="241" height="240">
<circle cx="354.5" cy="407" r="120" fill="white"/>
</mask>
<g mask="url(#mask0_1_4809)">
<circle opacity="0.5" cx="354.5" cy="407" r="120" fill="#D97706"/>
<path d="M295.087 403.025C295.547 400.78 297.235 398.987 299.449 398.394L381.841 376.317C384.054 375.724 386.413 376.433 387.934 378.147L398.918 390.534L291.768 419.244L295.087 403.025Z" fill="white"/>
<path d="M285.995 424.967C285.419 422.815 286.696 420.603 288.848 420.026L401.841 389.75C403.993 389.173 406.205 390.45 406.782 392.602L409.914 404.291C410.49 406.443 409.213 408.655 407.061 409.231L294.068 439.508C291.916 440.085 289.704 438.808 289.127 436.656L285.995 424.967Z" fill="white"/>
<path fill-rule="evenodd" clip-rule="evenodd" d="M395.368 412.363L305.749 436.376L345.963 537.311L411.008 519.882L395.368 412.363ZM303.661 428.584C298.996 429.834 296.467 434.875 298.254 439.362L338.469 540.297C339.983 544.097 344.101 546.162 348.051 545.104L413.096 527.675C417.047 526.616 419.581 522.769 418.992 518.721L403.351 411.202C402.656 406.422 397.945 403.32 393.28 404.57L303.661 428.584Z" fill="white"/>
<path fill-rule="evenodd" clip-rule="evenodd" d="M327.194 350.729C328.547 352.499 328.208 355.031 326.438 356.383C325.924 356.776 325.033 357.978 324.917 359.192C324.869 359.683 324.943 360.194 325.276 360.767C325.627 361.373 326.393 362.259 328.068 363.226C330.556 364.663 332.28 366.539 333.211 368.749C334.128 370.923 334.123 373.052 333.814 374.77C333.508 376.47 332.883 377.902 332.375 378.869C332.115 379.364 331.87 379.768 331.681 380.059C331.586 380.206 331.504 380.325 331.441 380.416C331.409 380.462 331.381 380.5 331.359 380.531L331.329 380.572L331.317 380.588L331.312 380.595L331.309 380.598C331.308 380.6 331.307 380.601 328.079 378.183L331.307 380.601C329.971 382.384 327.443 382.747 325.66 381.411C323.886 380.082 323.518 377.572 324.831 375.791C324.832 375.79 324.833 375.788 324.834 375.786C324.846 375.769 324.873 375.73 324.91 375.672C324.987 375.554 325.104 375.363 325.233 375.118C325.503 374.604 325.76 373.973 325.874 373.341C325.984 372.729 325.936 372.259 325.777 371.882C325.634 371.542 325.252 370.916 324.034 370.213C321.446 368.718 319.515 366.915 318.296 364.814C317.059 362.679 316.69 360.464 316.886 358.42C317.256 354.563 319.599 351.456 321.54 349.973C323.31 348.62 325.842 348.959 327.194 350.729Z" fill="white"/>
<path fill-rule="evenodd" clip-rule="evenodd" d="M342.581 335.132C343.933 336.902 343.595 339.433 341.824 340.786C341.31 341.179 340.42 342.38 340.303 343.594C340.256 344.086 340.33 344.596 340.662 345.169C341.014 345.775 341.78 346.661 343.455 347.629C345.943 349.065 347.667 350.941 348.598 353.152C349.514 355.325 349.51 357.454 349.201 359.172C348.895 360.872 348.27 362.304 347.762 363.271C347.502 363.766 347.256 364.17 347.068 364.462C346.973 364.608 346.891 364.728 346.827 364.819C346.795 364.864 346.768 364.902 346.746 364.933L346.716 364.974L346.704 364.99L346.698 364.997L346.696 365.001C346.695 365.002 346.694 365.004 343.466 362.585L346.694 365.004C345.358 366.787 342.83 367.149 341.047 365.813C339.273 364.484 338.905 361.975 340.217 360.193C340.218 360.192 340.22 360.19 340.221 360.188C340.233 360.171 340.259 360.133 340.297 360.074C340.374 359.956 340.491 359.765 340.62 359.52C340.889 359.006 341.147 358.375 341.261 357.744C341.371 357.131 341.323 356.662 341.164 356.285C341.021 355.945 340.638 355.318 339.421 354.615C336.832 353.121 334.902 351.318 333.683 349.216C332.445 347.082 332.076 344.866 332.273 342.823C332.643 338.965 334.985 335.858 336.927 334.375C338.697 333.023 341.228 333.361 342.581 335.132Z" fill="white"/>
</g>
<path d="M216.599 592V574.12H228.527V577H219.863V581.944H227.447V584.824H219.863V592H216.599ZM234.819 592.288C233.811 592.288 232.931 592.064 232.179 591.616C231.443 591.168 230.875 590.544 230.475 589.744C230.091 588.944 229.899 588.008 229.899 586.936V578.944H233.043V586.672C233.043 587.216 233.147 587.696 233.355 588.112C233.579 588.512 233.891 588.832 234.291 589.072C234.707 589.296 235.171 589.408 235.683 589.408C236.195 589.408 236.651 589.296 237.051 589.072C237.451 588.832 237.763 588.504 237.987 588.088C238.211 587.672 238.323 587.176 238.323 586.6V578.944H241.467V592H238.491V589.432L238.755 589.888C238.451 590.688 237.947 591.288 237.243 591.688C236.555 592.088 235.747 592.288 234.819 592.288ZM244.39 592V578.944H247.342V581.512L247.102 581.056C247.406 580.272 247.902 579.68 248.59 579.28C249.294 578.864 250.11 578.656 251.038 578.656C251.998 578.656 252.846 578.864 253.582 579.28C254.334 579.696 254.918 580.28 255.334 581.032C255.75 581.768 255.958 582.624 255.958 583.6V592H252.814V584.344C252.814 583.768 252.702 583.272 252.478 582.856C252.254 582.44 251.942 582.12 251.542 581.896C251.158 581.656 250.702 581.536 250.174 581.536C249.662 581.536 249.206 581.656 248.806 581.896C248.406 582.12 248.094 582.44 247.87 582.856C247.646 583.272 247.534 583.768 247.534 584.344V592H244.39ZM264.688 592.288C263.424 592.288 262.296 591.992 261.304 591.4C260.312 590.792 259.528 589.968 258.952 588.928C258.376 587.888 258.088 586.736 258.088 585.472C258.088 584.192 258.376 583.04 258.952 582.016C259.528 580.992 260.312 580.176 261.304 579.568C262.312 578.96 263.432 578.656 264.664 578.656C265.656 578.656 266.536 578.856 267.304 579.256C268.088 579.64 268.704 580.184 269.152 580.888L268.672 581.536V573.832H271.816V592H268.84V589.48L269.176 590.104C268.728 590.808 268.104 591.352 267.304 591.736C266.504 592.104 265.632 592.288 264.688 592.288ZM265.024 589.408C265.744 589.408 266.376 589.24 266.92 588.904C267.464 588.568 267.888 588.104 268.192 587.512C268.512 586.92 268.672 586.24 268.672 585.472C268.672 584.72 268.512 584.048 268.192 583.456C267.888 582.848 267.464 582.376 266.92 582.04C266.376 581.704 265.744 581.536 265.024 581.536C264.32 581.536 263.688 581.712 263.128 582.064C262.568 582.4 262.128 582.864 261.808 583.456C261.504 584.032 261.352 584.704 261.352 585.472C261.352 586.24 261.504 586.92 261.808 587.512C262.128 588.104 262.568 588.568 263.128 588.904C263.688 589.24 264.32 589.408 265.024 589.408ZM280.591 597.28C280.239 597.28 279.895 597.248 279.559 597.184C279.223 597.136 278.919 597.04 278.647 596.896V594.28C278.855 594.328 279.103 594.376 279.391 594.424C279.695 594.472 279.975 594.496 280.231 594.496C280.951 594.496 281.471 594.328 281.791 593.992C282.127 593.672 282.423 593.24 282.679 592.696L283.543 590.68L283.495 593.32L277.807 578.944H281.191L285.175 589.552H283.975L287.935 578.944H291.343L285.655 593.32C285.319 594.152 284.911 594.864 284.431 595.456C283.951 596.048 283.391 596.496 282.751 596.8C282.127 597.12 281.407 597.28 280.591 597.28ZM299.219 592.288C297.939 592.288 296.771 591.992 295.715 591.4C294.675 590.808 293.843 590 293.219 588.976C292.611 587.952 292.307 586.784 292.307 585.472C292.307 584.16 292.611 582.992 293.219 581.968C293.843 580.944 294.675 580.136 295.715 579.544C296.755 578.952 297.923 578.656 299.219 578.656C300.499 578.656 301.659 578.952 302.699 579.544C303.739 580.136 304.563 580.944 305.171 581.968C305.795 582.976 306.107 584.144 306.107 585.472C306.107 586.784 305.795 587.952 305.171 588.976C304.547 590 303.715 590.808 302.675 591.4C301.635 591.992 300.483 592.288 299.219 592.288ZM299.219 589.408C299.923 589.408 300.539 589.24 301.067 588.904C301.611 588.568 302.035 588.104 302.339 587.512C302.659 586.904 302.819 586.224 302.819 585.472C302.819 584.704 302.659 584.032 302.339 583.456C302.035 582.864 301.611 582.4 301.067 582.064C300.539 581.712 299.923 581.536 299.219 581.536C298.499 581.536 297.867 581.712 297.323 582.064C296.779 582.4 296.347 582.864 296.027 583.456C295.723 584.032 295.571 584.704 295.571 585.472C295.571 586.224 295.723 586.904 296.027 587.512C296.347 588.104 296.779 588.568 297.323 588.904C297.867 589.24 298.499 589.408 299.219 589.408ZM313.147 592.288C312.139 592.288 311.259 592.064 310.507 591.616C309.771 591.168 309.203 590.544 308.803 589.744C308.419 588.944 308.227 588.008 308.227 586.936V578.944H311.371V586.672C311.371 587.216 311.475 587.696 311.683 588.112C311.907 588.512 312.219 588.832 312.619 589.072C313.035 589.296 313.499 589.408 314.011 589.408C314.523 589.408 314.979 589.296 315.379 589.072C315.779 588.832 316.091 588.504 316.315 588.088C316.539 587.672 316.651 587.176 316.651 586.6V578.944H319.795V592H316.819V589.432L317.083 589.888C316.779 590.688 316.275 591.288 315.571 591.688C314.883 592.088 314.075 592.288 313.147 592.288ZM322.718 592V578.944H325.67V581.848L325.43 581.416C325.734 580.44 326.206 579.76 326.846 579.376C327.502 578.992 328.286 578.8 329.198 578.8H329.966V581.584H328.838C327.942 581.584 327.222 581.864 326.678 582.424C326.134 582.968 325.862 583.736 325.862 584.728V592H322.718ZM342.248 592.288C340.952 592.288 339.784 591.992 338.744 591.4C337.72 590.792 336.912 589.976 336.32 588.952C335.728 587.912 335.432 586.744 335.432 585.448C335.432 584.152 335.728 582.992 336.32 581.968C336.912 580.944 337.72 580.136 338.744 579.544C339.784 578.952 340.952 578.656 342.248 578.656C343.176 578.656 344.04 578.824 344.84 579.16C345.64 579.48 346.328 579.928 346.904 580.504C347.496 581.064 347.92 581.736 348.176 582.52L345.416 583.72C345.176 583.064 344.768 582.536 344.192 582.136C343.632 581.736 342.984 581.536 342.248 581.536C341.56 581.536 340.944 581.704 340.4 582.04C339.872 582.376 339.456 582.84 339.152 583.432C338.848 584.024 338.696 584.704 338.696 585.472C338.696 586.24 338.848 586.92 339.152 587.512C339.456 588.104 339.872 588.568 340.4 588.904C340.944 589.24 341.56 589.408 342.248 589.408C343 589.408 343.656 589.208 344.216 588.808C344.776 588.408 345.176 587.872 345.416 587.2L348.176 588.448C347.92 589.184 347.504 589.848 346.928 590.44C346.352 591.016 345.664 591.472 344.864 591.808C344.064 592.128 343.192 592.288 342.248 592.288ZM350.562 592V578.944H353.514V581.848L353.274 581.416C353.578 580.44 354.05 579.76 354.69 579.376C355.346 578.992 356.13 578.8 357.042 578.8H357.81V581.584H356.682C355.786 581.584 355.066 581.864 354.522 582.424C353.978 582.968 353.706 583.736 353.706 584.728V592H350.562ZM365.73 592.288C364.386 592.288 363.21 591.984 362.202 591.376C361.194 590.768 360.41 589.944 359.85 588.904C359.29 587.864 359.01 586.712 359.01 585.448C359.01 584.136 359.29 582.976 359.85 581.968C360.426 580.944 361.202 580.136 362.178 579.544C363.17 578.952 364.274 578.656 365.49 578.656C366.514 578.656 367.41 578.824 368.178 579.16C368.962 579.496 369.626 579.96 370.17 580.552C370.714 581.144 371.13 581.824 371.418 582.592C371.706 583.344 371.85 584.16 371.85 585.04C371.85 585.264 371.834 585.496 371.802 585.736C371.786 585.976 371.746 586.184 371.682 586.36H361.602V583.96H369.906L368.418 585.088C368.562 584.352 368.522 583.696 368.298 583.12C368.09 582.544 367.738 582.088 367.242 581.752C366.762 581.416 366.178 581.248 365.49 581.248C364.834 581.248 364.25 581.416 363.738 581.752C363.226 582.072 362.834 582.552 362.562 583.192C362.306 583.816 362.21 584.576 362.274 585.472C362.21 586.272 362.314 586.984 362.586 587.608C362.874 588.216 363.29 588.688 363.834 589.024C364.394 589.36 365.034 589.528 365.754 589.528C366.474 589.528 367.082 589.376 367.578 589.072C368.09 588.768 368.49 588.36 368.778 587.848L371.322 589.096C371.066 589.72 370.666 590.272 370.122 590.752C369.578 591.232 368.93 591.608 368.178 591.88C367.442 592.152 366.626 592.288 365.73 592.288ZM378.147 592.288C377.235 592.288 376.443 592.136 375.771 591.832C375.099 591.528 374.579 591.096 374.211 590.536C373.843 589.96 373.659 589.296 373.659 588.544C373.659 587.824 373.819 587.184 374.139 586.624C374.459 586.048 374.955 585.568 375.627 585.184C376.299 584.8 377.147 584.528 378.171 584.368L382.443 583.672V586.072L378.771 586.696C378.147 586.808 377.683 587.008 377.379 587.296C377.075 587.584 376.923 587.96 376.923 588.424C376.923 588.872 377.091 589.232 377.427 589.504C377.779 589.76 378.211 589.888 378.723 589.888C379.379 589.888 379.955 589.752 380.451 589.48C380.963 589.192 381.355 588.8 381.627 588.304C381.915 587.808 382.059 587.264 382.059 586.672V583.312C382.059 582.752 381.835 582.288 381.387 581.92C380.955 581.536 380.379 581.344 379.659 581.344C378.987 581.344 378.387 581.528 377.859 581.896C377.347 582.248 376.971 582.72 376.731 583.312L374.163 582.064C374.419 581.376 374.819 580.784 375.363 580.288C375.923 579.776 376.579 579.376 377.331 579.088C378.083 578.8 378.899 578.656 379.779 578.656C380.851 578.656 381.795 578.856 382.611 579.256C383.427 579.64 384.059 580.184 384.507 580.888C384.971 581.576 385.203 582.384 385.203 583.312V592H382.227V589.768L382.899 589.72C382.563 590.28 382.163 590.752 381.699 591.136C381.235 591.504 380.707 591.792 380.115 592C379.523 592.192 378.867 592.288 378.147 592.288ZM393.826 592.144C392.354 592.144 391.21 591.744 390.394 590.944C389.594 590.128 389.194 588.984 389.194 587.512V581.752H386.938V578.944H387.178C387.818 578.944 388.314 578.776 388.666 578.44C389.018 578.104 389.194 577.616 389.194 576.976V575.968H392.338V578.944H395.338V581.752H392.338V587.344C392.338 587.776 392.41 588.144 392.554 588.448C392.714 588.752 392.954 588.984 393.274 589.144C393.61 589.304 394.034 589.384 394.546 589.384C394.658 589.384 394.786 589.376 394.93 589.36C395.09 589.344 395.242 589.328 395.386 589.312V592C395.162 592.032 394.906 592.064 394.618 592.096C394.33 592.128 394.066 592.144 393.826 592.144ZM397.788 592V578.944H400.932V592H397.788ZM397.788 577.48V574.12H400.932V577.48H397.788ZM407.771 592L402.635 578.944H406.067L409.787 589.216H408.515L412.259 578.944H415.691L410.555 592H407.771ZM423.386 592.288C422.042 592.288 420.866 591.984 419.858 591.376C418.85 590.768 418.066 589.944 417.506 588.904C416.946 587.864 416.666 586.712 416.666 585.448C416.666 584.136 416.946 582.976 417.506 581.968C418.082 580.944 418.858 580.136 419.834 579.544C420.826 578.952 421.93 578.656 423.146 578.656C424.17 578.656 425.066 578.824 425.834 579.16C426.618 579.496 427.282 579.96 427.826 580.552C428.37 581.144 428.786 581.824 429.074 582.592C429.362 583.344 429.506 584.16 429.506 585.04C429.506 585.264 429.49 585.496 429.458 585.736C429.442 585.976 429.402 586.184 429.338 586.36H419.258V583.96H427.562L426.074 585.088C426.218 584.352 426.178 583.696 425.954 583.12C425.746 582.544 425.394 582.088 424.898 581.752C424.418 581.416 423.834 581.248 423.146 581.248C422.49 581.248 421.906 581.416 421.394 581.752C420.882 582.072 420.49 582.552 420.218 583.192C419.962 583.816 419.866 584.576 419.93 585.472C419.866 586.272 419.97 586.984 420.242 587.608C420.53 588.216 420.946 588.688 421.49 589.024C422.05 589.36 422.69 589.528 423.41 589.528C424.13 589.528 424.738 589.376 425.234 589.072C425.746 588.768 426.146 588.36 426.434 587.848L428.978 589.096C428.722 589.72 428.322 590.272 427.778 590.752C427.234 591.232 426.586 591.608 425.834 591.88C425.098 592.152 424.282 592.288 423.386 592.288ZM439.443 592L434.955 578.944H438.267L441.555 588.856L440.403 588.832L443.907 578.944H446.691L450.171 588.832L449.019 588.856L452.307 578.944H455.619L451.131 592H448.323L444.771 581.656H445.827L442.227 592H439.443ZM463.493 592.288C462.213 592.288 461.045 591.992 459.989 591.4C458.949 590.808 458.117 590 457.493 588.976C456.885 587.952 456.581 586.784 456.581 585.472C456.581 584.16 456.885 582.992 457.493 581.968C458.117 580.944 458.949 580.136 459.989 579.544C461.029 578.952 462.197 578.656 463.493 578.656C464.773 578.656 465.933 578.952 466.973 579.544C468.013 580.136 468.837 580.944 469.445 581.968C470.069 582.976 470.381 584.144 470.381 585.472C470.381 586.784 470.069 587.952 469.445 588.976C468.821 590 467.989 590.808 466.949 591.4C465.909 591.992 464.757 592.288 463.493 592.288ZM463.493 589.408C464.197 589.408 464.813 589.24 465.341 588.904C465.885 588.568 466.309 588.104 466.613 587.512C466.933 586.904 467.093 586.224 467.093 585.472C467.093 584.704 466.933 584.032 466.613 583.456C466.309 582.864 465.885 582.4 465.341 582.064C464.813 581.712 464.197 581.536 463.493 581.536C462.773 581.536 462.141 581.712 461.597 582.064C461.053 582.4 460.621 582.864 460.301 583.456C459.997 584.032 459.845 584.704 459.845 585.472C459.845 586.224 459.997 586.904 460.301 587.512C460.621 588.104 461.053 588.568 461.597 588.904C462.141 589.24 462.773 589.408 463.493 589.408ZM472.765 592V578.944H475.717V581.848L475.477 581.416C475.781 580.44 476.253 579.76 476.893 579.376C477.549 578.992 478.333 578.8 479.245 578.8H480.013V581.584H478.885C477.989 581.584 477.269 581.864 476.725 582.424C476.181 582.968 475.909 583.736 475.909 584.728V592H472.765ZM481.741 592V573.832H484.885V585.736L483.685 585.376L489.829 578.944H493.741L488.917 584.2L493.837 592H490.237L485.965 585.232L487.837 584.848L483.901 589.072L484.885 587.152V592H481.741Z" fill="#09090B"/>
<path d="M132.031 627L135.999 615.48H137.559L141.527 627H140.303L136.535 616.136H136.999L133.255 627H132.031ZM133.799 624.208V623.104H139.751V624.208H133.799ZM146.556 627.24C145.686 627.24 144.95 627.045 144.348 626.656C143.745 626.267 143.286 625.731 142.972 625.048C142.662 624.36 142.502 623.571 142.492 622.68C142.502 621.773 142.668 620.979 142.988 620.296C143.308 619.608 143.769 619.075 144.372 618.696C144.974 618.312 145.705 618.12 146.564 618.12C147.438 618.12 148.198 618.333 148.844 618.76C149.494 619.187 149.94 619.771 150.18 620.512L149.028 620.88C148.825 620.363 148.502 619.963 148.06 619.68C147.622 619.392 147.121 619.248 146.556 619.248C145.921 619.248 145.396 619.395 144.98 619.688C144.564 619.976 144.254 620.379 144.052 620.896C143.849 621.413 143.745 622.008 143.74 622.68C143.75 623.715 143.99 624.547 144.46 625.176C144.929 625.8 145.628 626.112 146.556 626.112C147.142 626.112 147.641 625.979 148.052 625.712C148.468 625.44 148.782 625.045 148.996 624.528L150.18 624.88C149.86 625.648 149.39 626.235 148.772 626.64C148.153 627.04 147.414 627.24 146.556 627.24ZM155.181 627.24C154.311 627.24 153.575 627.045 152.973 626.656C152.37 626.267 151.911 625.731 151.597 625.048C151.287 624.36 151.127 623.571 151.117 622.68C151.127 621.773 151.293 620.979 151.613 620.296C151.933 619.608 152.394 619.075 152.997 618.696C153.599 618.312 154.33 618.12 155.189 618.12C156.063 618.12 156.823 618.333 157.469 618.76C158.119 619.187 158.565 619.771 158.805 620.512L157.653 620.88C157.45 620.363 157.127 619.963 156.685 619.68C156.247 619.392 155.746 619.248 155.181 619.248C154.546 619.248 154.021 619.395 153.605 619.688C153.189 619.976 152.879 620.379 152.677 620.896C152.474 621.413 152.37 622.008 152.365 622.68C152.375 623.715 152.615 624.547 153.085 625.176C153.554 625.8 154.253 626.112 155.181 626.112C155.767 626.112 156.266 625.979 156.677 625.712C157.093 625.44 157.407 625.045 157.621 624.528L158.805 624.88C158.485 625.648 158.015 626.235 157.397 626.64C156.778 627.04 156.039 627.24 155.181 627.24ZM163.878 627.24C163.035 627.24 162.304 627.053 161.686 626.68C161.072 626.307 160.595 625.781 160.254 625.104C159.912 624.427 159.742 623.632 159.742 622.72C159.742 621.776 159.91 620.96 160.246 620.272C160.582 619.584 161.054 619.053 161.662 618.68C162.275 618.307 162.998 618.12 163.83 618.12C164.683 618.12 165.411 618.317 166.014 618.712C166.616 619.101 167.072 619.661 167.382 620.392C167.691 621.123 167.832 621.995 167.806 623.008H166.606V622.592C166.584 621.472 166.342 620.627 165.878 620.056C165.419 619.485 164.747 619.2 163.862 619.2C162.934 619.2 162.222 619.501 161.726 620.104C161.235 620.707 160.99 621.565 160.99 622.68C160.99 623.768 161.235 624.613 161.726 625.216C162.222 625.813 162.923 626.112 163.83 626.112C164.448 626.112 164.987 625.971 165.446 625.688C165.91 625.4 166.275 624.987 166.542 624.448L167.638 624.872C167.296 625.624 166.792 626.208 166.126 626.624C165.464 627.035 164.715 627.24 163.878 627.24ZM160.574 623.008V622.024H167.174V623.008H160.574ZM173.227 627.24C172.432 627.24 171.76 627.04 171.211 626.64C170.661 626.235 170.245 625.688 169.963 625C169.68 624.307 169.539 623.531 169.539 622.672C169.539 621.797 169.68 621.019 169.963 620.336C170.251 619.648 170.672 619.107 171.227 618.712C171.781 618.317 172.464 618.12 173.275 618.12C174.064 618.12 174.741 618.32 175.307 618.72C175.872 619.12 176.304 619.664 176.603 620.352C176.907 621.04 177.059 621.813 177.059 622.672C177.059 623.536 176.907 624.312 176.603 625C176.299 625.688 175.861 626.235 175.291 626.64C174.72 627.04 174.032 627.24 173.227 627.24ZM169.339 630.84V618.36H170.395V624.864H170.523V630.84H169.339ZM173.107 626.144C173.709 626.144 174.211 625.992 174.611 625.688C175.011 625.384 175.309 624.971 175.507 624.448C175.709 623.92 175.811 623.328 175.811 622.672C175.811 622.021 175.712 621.435 175.515 620.912C175.317 620.389 175.016 619.976 174.611 619.672C174.211 619.368 173.701 619.216 173.083 619.216C172.48 619.216 171.979 619.363 171.579 619.656C171.184 619.949 170.888 620.357 170.691 620.88C170.493 621.397 170.395 621.995 170.395 622.672C170.395 623.339 170.493 623.936 170.691 624.464C170.888 624.987 171.187 625.397 171.587 625.696C171.987 625.995 172.493 626.144 173.107 626.144ZM183.519 627C183.034 627.101 182.554 627.141 182.079 627.12C181.61 627.099 181.189 626.997 180.815 626.816C180.447 626.635 180.167 626.352 179.975 625.968C179.821 625.648 179.735 625.325 179.719 625C179.709 624.669 179.703 624.293 179.703 623.872V615.96H180.871V623.824C180.871 624.187 180.874 624.491 180.879 624.736C180.89 624.976 180.946 625.189 181.047 625.376C181.239 625.733 181.543 625.947 181.959 626.016C182.381 626.085 182.901 626.069 183.519 625.968V627ZM177.855 619.368V618.36H183.519V619.368H177.855ZM191.649 627.232C190.635 627.232 189.801 627.013 189.145 626.576C188.494 626.139 188.094 625.531 187.945 624.752L189.145 624.552C189.273 625.043 189.563 625.435 190.017 625.728C190.475 626.016 191.041 626.16 191.713 626.16C192.369 626.16 192.886 626.024 193.265 625.752C193.643 625.475 193.833 625.099 193.833 624.624C193.833 624.357 193.771 624.141 193.649 623.976C193.531 623.805 193.289 623.648 192.921 623.504C192.553 623.36 192.003 623.189 191.273 622.992C190.489 622.779 189.875 622.565 189.433 622.352C188.99 622.139 188.675 621.893 188.489 621.616C188.302 621.333 188.209 620.989 188.209 620.584C188.209 620.093 188.347 619.664 188.625 619.296C188.902 618.923 189.286 618.635 189.777 618.432C190.267 618.224 190.838 618.12 191.489 618.12C192.139 618.12 192.721 618.227 193.233 618.44C193.75 618.648 194.166 618.941 194.481 619.32C194.795 619.699 194.982 620.139 195.041 620.64L193.841 620.856C193.761 620.349 193.507 619.949 193.081 619.656C192.659 619.357 192.123 619.203 191.473 619.192C190.859 619.176 190.361 619.293 189.977 619.544C189.593 619.789 189.401 620.117 189.401 620.528C189.401 620.757 189.47 620.955 189.609 621.12C189.747 621.28 189.998 621.432 190.361 621.576C190.729 621.72 191.251 621.877 191.929 622.048C192.723 622.251 193.347 622.464 193.801 622.688C194.254 622.912 194.577 623.176 194.769 623.48C194.961 623.784 195.057 624.16 195.057 624.608C195.057 625.424 194.753 626.067 194.145 626.536C193.542 627 192.71 627.232 191.649 627.232ZM200.135 627.216C199.618 627.216 199.164 627.136 198.775 626.976C198.391 626.816 198.063 626.6 197.791 626.328C197.524 626.056 197.308 625.747 197.143 625.4C196.978 625.048 196.858 624.677 196.783 624.288C196.708 623.893 196.671 623.501 196.671 623.112V618.36H197.855V622.768C197.855 623.243 197.9 623.683 197.991 624.088C198.082 624.493 198.226 624.848 198.423 625.152C198.626 625.451 198.884 625.683 199.199 625.848C199.519 626.013 199.906 626.096 200.359 626.096C200.775 626.096 201.14 626.024 201.455 625.88C201.775 625.736 202.042 625.531 202.255 625.264C202.474 624.992 202.639 624.664 202.751 624.28C202.863 623.891 202.919 623.453 202.919 622.968L203.751 623.152C203.751 624.037 203.596 624.781 203.287 625.384C202.978 625.987 202.551 626.443 202.007 626.752C201.463 627.061 200.839 627.216 200.135 627.216ZM203.039 627V624.872H202.919V618.36H204.095V627H203.039ZM210.211 627.24C209.416 627.24 208.744 627.04 208.195 626.64C207.646 626.235 207.23 625.688 206.947 625C206.664 624.307 206.523 623.531 206.523 622.672C206.523 621.797 206.664 621.019 206.947 620.336C207.235 619.648 207.656 619.107 208.211 618.712C208.766 618.317 209.448 618.12 210.259 618.12C211.048 618.12 211.726 618.32 212.291 618.72C212.856 619.12 213.288 619.664 213.587 620.352C213.891 621.04 214.043 621.813 214.043 622.672C214.043 623.536 213.891 624.312 213.587 625C213.283 625.688 212.846 626.235 212.275 626.64C211.704 627.04 211.016 627.24 210.211 627.24ZM206.323 630.84V618.36H207.379V624.864H207.507V630.84H206.323ZM210.091 626.144C210.694 626.144 211.195 625.992 211.595 625.688C211.995 625.384 212.294 624.971 212.491 624.448C212.694 623.92 212.795 623.328 212.795 622.672C212.795 622.021 212.696 621.435 212.499 620.912C212.302 620.389 212 619.976 211.595 619.672C211.195 619.368 210.686 619.216 210.067 619.216C209.464 619.216 208.963 619.363 208.563 619.656C208.168 619.949 207.872 620.357 207.675 620.88C207.478 621.397 207.379 621.995 207.379 622.672C207.379 623.339 207.478 623.936 207.675 624.464C207.872 624.987 208.171 625.397 208.571 625.696C208.971 625.995 209.478 626.144 210.091 626.144ZM219.68 627.24C218.885 627.24 218.213 627.04 217.664 626.64C217.114 626.235 216.698 625.688 216.416 625C216.133 624.307 215.992 623.531 215.992 622.672C215.992 621.797 216.133 621.019 216.416 620.336C216.704 619.648 217.125 619.107 217.68 618.712C218.234 618.317 218.917 618.12 219.728 618.12C220.517 618.12 221.194 618.32 221.76 618.72C222.325 619.12 222.757 619.664 223.056 620.352C223.36 621.04 223.512 621.813 223.512 622.672C223.512 623.536 223.36 624.312 223.056 625C222.752 625.688 222.314 626.235 221.744 626.64C221.173 627.04 220.485 627.24 219.68 627.24ZM215.792 630.84V618.36H216.848V624.864H216.976V630.84H215.792ZM219.56 626.144C220.162 626.144 220.664 625.992 221.064 625.688C221.464 625.384 221.762 624.971 221.96 624.448C222.162 623.92 222.264 623.328 222.264 622.672C222.264 622.021 222.165 621.435 221.968 620.912C221.77 620.389 221.469 619.976 221.064 619.672C220.664 619.368 220.154 619.216 219.536 619.216C218.933 619.216 218.432 619.363 218.032 619.656C217.637 619.949 217.341 620.357 217.144 620.88C216.946 621.397 216.848 621.995 216.848 622.672C216.848 623.339 216.946 623.936 217.144 624.464C217.341 624.987 217.64 625.397 218.04 625.696C218.44 625.995 218.946 626.144 219.56 626.144ZM228.876 627.24C228.018 627.24 227.284 627.045 226.676 626.656C226.068 626.267 225.602 625.728 225.276 625.04C224.951 624.352 224.788 623.563 224.788 622.672C224.788 621.765 224.954 620.971 225.284 620.288C225.615 619.605 226.084 619.075 226.692 618.696C227.306 618.312 228.034 618.12 228.876 618.12C229.74 618.12 230.476 618.315 231.084 618.704C231.698 619.088 232.164 619.624 232.484 620.312C232.81 620.995 232.972 621.781 232.972 622.672C232.972 623.579 232.81 624.376 232.484 625.064C232.159 625.747 231.69 626.28 231.076 626.664C230.463 627.048 229.73 627.24 228.876 627.24ZM228.876 626.112C229.836 626.112 230.551 625.795 231.02 625.16C231.49 624.52 231.724 623.691 231.724 622.672C231.724 621.627 231.487 620.795 231.012 620.176C230.543 619.557 229.831 619.248 228.876 619.248C228.231 619.248 227.698 619.395 227.276 619.688C226.86 619.976 226.548 620.379 226.34 620.896C226.138 621.408 226.036 622 226.036 622.672C226.036 623.712 226.276 624.547 226.756 625.176C227.236 625.8 227.943 626.112 228.876 626.112ZM234.737 627V618.36H235.793V620.44L235.585 620.168C235.681 619.912 235.807 619.677 235.961 619.464C236.116 619.245 236.284 619.067 236.465 618.928C236.689 618.731 236.951 618.581 237.249 618.48C237.548 618.373 237.849 618.312 238.153 618.296C238.457 618.275 238.735 618.296 238.985 618.36V619.464C238.671 619.384 238.327 619.365 237.953 619.408C237.58 619.451 237.236 619.6 236.921 619.856C236.633 620.08 236.417 620.349 236.273 620.664C236.129 620.973 236.033 621.304 235.985 621.656C235.937 622.003 235.913 622.347 235.913 622.688V627H234.737ZM245.207 627C244.721 627.101 244.241 627.141 243.767 627.12C243.297 627.099 242.876 626.997 242.503 626.816C242.135 626.635 241.855 626.352 241.663 625.968C241.508 625.648 241.423 625.325 241.407 625C241.396 624.669 241.391 624.293 241.391 623.872V615.96H242.559V623.824C242.559 624.187 242.561 624.491 242.567 624.736C242.577 624.976 242.633 625.189 242.735 625.376C242.927 625.733 243.231 625.947 243.647 626.016C244.068 626.085 244.588 626.069 245.207 625.968V627ZM239.543 619.368V618.36H245.207V619.368H239.543ZM247.133 627V625.632H248.501V627H247.133ZM258.175 627.24C257.369 627.24 256.644 627.107 255.999 626.84C255.359 626.568 254.828 626.184 254.407 625.688C253.991 625.192 253.719 624.603 253.591 623.92L254.791 623.72C254.983 624.467 255.388 625.053 256.007 625.48C256.625 625.901 257.364 626.112 258.223 626.112C258.788 626.112 259.295 626.024 259.743 625.848C260.191 625.667 260.543 625.411 260.799 625.08C261.055 624.749 261.183 624.357 261.183 623.904C261.183 623.605 261.129 623.352 261.023 623.144C260.916 622.931 260.775 622.755 260.599 622.616C260.423 622.477 260.231 622.363 260.023 622.272C259.815 622.176 259.612 622.099 259.415 622.04L256.495 621.168C256.143 621.067 255.817 620.939 255.519 620.784C255.22 620.624 254.959 620.435 254.735 620.216C254.516 619.992 254.345 619.731 254.223 619.432C254.1 619.133 254.039 618.792 254.039 618.408C254.039 617.757 254.209 617.195 254.551 616.72C254.892 616.245 255.359 615.88 255.951 615.624C256.543 615.368 257.217 615.243 257.975 615.248C258.743 615.248 259.428 615.384 260.031 615.656C260.639 615.928 261.14 616.317 261.535 616.824C261.929 617.325 262.191 617.92 262.319 618.608L261.087 618.832C261.007 618.331 260.823 617.896 260.535 617.528C260.247 617.16 259.879 616.877 259.431 616.68C258.988 616.477 258.5 616.373 257.967 616.368C257.449 616.368 256.988 616.456 256.583 616.632C256.183 616.803 255.865 617.037 255.631 617.336C255.396 617.635 255.279 617.976 255.279 618.36C255.279 618.749 255.385 619.061 255.599 619.296C255.817 619.531 256.084 619.715 256.399 619.848C256.719 619.981 257.028 620.091 257.327 620.176L259.583 620.84C259.817 620.904 260.092 620.997 260.407 621.12C260.727 621.237 261.036 621.408 261.335 621.632C261.639 621.851 261.889 622.139 262.087 622.496C262.284 622.853 262.383 623.307 262.383 623.856C262.383 624.389 262.276 624.867 262.063 625.288C261.855 625.709 261.559 626.064 261.175 626.352C260.796 626.64 260.351 626.859 259.839 627.008C259.332 627.163 258.777 627.24 258.175 627.24ZM268.738 627C268.253 627.101 267.773 627.141 267.298 627.12C266.829 627.099 266.407 626.997 266.034 626.816C265.666 626.635 265.386 626.352 265.194 625.968C265.039 625.648 264.954 625.325 264.938 625C264.927 624.669 264.922 624.293 264.922 623.872V615.96H266.09V623.824C266.09 624.187 266.093 624.491 266.098 624.736C266.109 624.976 266.165 625.189 266.266 625.376C266.458 625.733 266.762 625.947 267.178 626.016C267.599 626.085 268.119 626.069 268.738 625.968V627ZM263.074 619.368V618.36H268.738V619.368H263.074ZM272.912 627.24C272.262 627.24 271.715 627.123 271.272 626.888C270.835 626.653 270.507 626.341 270.288 625.952C270.07 625.563 269.96 625.139 269.96 624.68C269.96 624.211 270.054 623.811 270.24 623.48C270.432 623.144 270.691 622.869 271.016 622.656C271.347 622.443 271.728 622.28 272.16 622.168C272.598 622.061 273.08 621.968 273.608 621.888C274.142 621.803 274.662 621.731 275.168 621.672C275.68 621.608 276.128 621.547 276.512 621.488L276.096 621.744C276.112 620.891 275.947 620.259 275.6 619.848C275.254 619.437 274.651 619.232 273.792 619.232C273.2 619.232 272.699 619.365 272.288 619.632C271.883 619.899 271.598 620.32 271.432 620.896L270.288 620.56C270.486 619.787 270.883 619.187 271.48 618.76C272.078 618.333 272.854 618.12 273.808 618.12C274.598 618.12 275.267 618.269 275.816 618.568C276.371 618.861 276.763 619.288 276.992 619.848C277.099 620.099 277.168 620.379 277.2 620.688C277.232 620.997 277.248 621.312 277.248 621.632V627H276.2V624.832L276.504 624.96C276.211 625.701 275.755 626.267 275.136 626.656C274.518 627.045 273.776 627.24 272.912 627.24ZM273.048 626.224C273.598 626.224 274.078 626.125 274.488 625.928C274.899 625.731 275.23 625.461 275.48 625.12C275.731 624.773 275.894 624.384 275.968 623.952C276.032 623.675 276.067 623.371 276.072 623.04C276.078 622.704 276.08 622.453 276.08 622.288L276.528 622.52C276.128 622.573 275.694 622.627 275.224 622.68C274.76 622.733 274.302 622.795 273.848 622.864C273.4 622.933 272.995 623.016 272.632 623.112C272.387 623.181 272.15 623.28 271.92 623.408C271.691 623.531 271.502 623.696 271.352 623.904C271.208 624.112 271.136 624.371 271.136 624.68C271.136 624.931 271.198 625.173 271.32 625.408C271.448 625.643 271.651 625.837 271.928 625.992C272.211 626.147 272.584 626.224 273.048 626.224ZM279.331 627V618.36H280.387V620.44L280.179 620.168C280.275 619.912 280.4 619.677 280.555 619.464C280.71 619.245 280.878 619.067 281.059 618.928C281.283 618.731 281.544 618.581 281.843 618.48C282.142 618.373 282.443 618.312 282.747 618.296C283.051 618.275 283.328 618.296 283.579 618.36V619.464C283.264 619.384 282.92 619.365 282.547 619.408C282.174 619.451 281.83 619.6 281.515 619.856C281.227 620.08 281.011 620.349 280.867 620.664C280.723 620.973 280.627 621.304 280.579 621.656C280.531 622.003 280.507 622.347 280.507 622.688V627H279.331ZM289.801 627C289.315 627.101 288.835 627.141 288.361 627.12C287.891 627.099 287.47 626.997 287.097 626.816C286.729 626.635 286.449 626.352 286.257 625.968C286.102 625.648 286.017 625.325 286.001 625C285.99 624.669 285.985 624.293 285.985 623.872V615.96H287.153V623.824C287.153 624.187 287.155 624.491 287.161 624.736C287.171 624.976 287.227 625.189 287.329 625.376C287.521 625.733 287.825 625.947 288.241 626.016C288.662 626.085 289.182 626.069 289.801 625.968V627ZM284.137 619.368V618.36H289.801V619.368H284.137ZM297.178 627.24C296.527 627.24 295.981 627.123 295.538 626.888C295.101 626.653 294.773 626.341 294.554 625.952C294.335 625.563 294.226 625.139 294.226 624.68C294.226 624.211 294.319 623.811 294.506 623.48C294.698 623.144 294.957 622.869 295.282 622.656C295.613 622.443 295.994 622.28 296.426 622.168C296.863 622.061 297.346 621.968 297.874 621.888C298.407 621.803 298.927 621.731 299.434 621.672C299.946 621.608 300.394 621.547 300.778 621.488L300.362 621.744C300.378 620.891 300.213 620.259 299.866 619.848C299.519 619.437 298.917 619.232 298.058 619.232C297.466 619.232 296.965 619.365 296.554 619.632C296.149 619.899 295.863 620.32 295.698 620.896L294.554 620.56C294.751 619.787 295.149 619.187 295.746 618.76C296.343 618.333 297.119 618.12 298.074 618.12C298.863 618.12 299.533 618.269 300.082 618.568C300.637 618.861 301.029 619.288 301.258 619.848C301.365 620.099 301.434 620.379 301.466 620.688C301.498 620.997 301.514 621.312 301.514 621.632V627H300.466V624.832L300.77 624.96C300.477 625.701 300.021 626.267 299.402 626.656C298.783 627.045 298.042 627.24 297.178 627.24ZM297.314 626.224C297.863 626.224 298.343 626.125 298.754 625.928C299.165 625.731 299.495 625.461 299.746 625.12C299.997 624.773 300.159 624.384 300.234 623.952C300.298 623.675 300.333 623.371 300.338 623.04C300.343 622.704 300.346 622.453 300.346 622.288L300.794 622.52C300.394 622.573 299.959 622.627 299.49 622.68C299.026 622.733 298.567 622.795 298.114 622.864C297.666 622.933 297.261 623.016 296.898 623.112C296.653 623.181 296.415 623.28 296.186 623.408C295.957 623.531 295.767 623.696 295.618 623.904C295.474 624.112 295.402 624.371 295.402 624.68C295.402 624.931 295.463 625.173 295.586 625.408C295.714 625.643 295.917 625.837 296.194 625.992C296.477 626.147 296.85 626.224 297.314 626.224ZM317.104 627L317.112 621.328C317.112 620.661 316.925 620.139 316.552 619.76C316.184 619.376 315.714 619.184 315.144 619.184C314.818 619.184 314.501 619.259 314.192 619.408C313.882 619.557 313.626 619.797 313.424 620.128C313.226 620.459 313.128 620.891 313.128 621.424L312.432 621.224C312.416 620.605 312.536 620.064 312.792 619.6C313.053 619.136 313.41 618.776 313.864 618.52C314.322 618.259 314.84 618.128 315.416 618.128C316.285 618.128 316.981 618.397 317.504 618.936C318.026 619.469 318.288 620.192 318.288 621.104L318.28 627H317.104ZM306.792 627V618.36H307.848V620.488H307.976V627H306.792ZM311.96 627L311.968 621.408C311.968 620.72 311.784 620.179 311.416 619.784C311.053 619.384 310.573 619.184 309.976 619.184C309.378 619.184 308.896 619.389 308.528 619.8C308.16 620.205 307.976 620.747 307.976 621.424L307.272 621.04C307.272 620.485 307.402 619.989 307.664 619.552C307.925 619.109 308.282 618.763 308.736 618.512C309.189 618.256 309.704 618.128 310.28 618.128C310.829 618.128 311.317 618.245 311.744 618.48C312.176 618.715 312.514 619.056 312.76 619.504C313.005 619.952 313.128 620.496 313.128 621.136L313.12 627H311.96ZM323.971 627.24C323.129 627.24 322.398 627.053 321.779 626.68C321.166 626.307 320.689 625.781 320.347 625.104C320.006 624.427 319.835 623.632 319.835 622.72C319.835 621.776 320.003 620.96 320.339 620.272C320.675 619.584 321.147 619.053 321.755 618.68C322.369 618.307 323.091 618.12 323.923 618.12C324.777 618.12 325.505 618.317 326.107 618.712C326.71 619.101 327.166 619.661 327.475 620.392C327.785 621.123 327.926 621.995 327.899 623.008H326.699V622.592C326.678 621.472 326.435 620.627 325.971 620.056C325.513 619.485 324.841 619.2 323.955 619.2C323.027 619.2 322.315 619.501 321.819 620.104C321.329 620.707 321.083 621.565 321.083 622.68C321.083 623.768 321.329 624.613 321.819 625.216C322.315 625.813 323.017 626.112 323.923 626.112C324.542 626.112 325.081 625.971 325.539 625.688C326.003 625.4 326.369 624.987 326.635 624.448L327.731 624.872C327.39 625.624 326.886 626.208 326.219 626.624C325.558 627.035 324.809 627.24 323.971 627.24ZM320.667 623.008V622.024H327.267V623.008H320.667ZM339.744 627L339.752 621.328C339.752 620.661 339.566 620.139 339.192 619.76C338.824 619.376 338.355 619.184 337.784 619.184C337.459 619.184 337.142 619.259 336.832 619.408C336.523 619.557 336.267 619.797 336.064 620.128C335.867 620.459 335.768 620.891 335.768 621.424L335.072 621.224C335.056 620.605 335.176 620.064 335.432 619.6C335.694 619.136 336.051 618.776 336.504 618.52C336.963 618.259 337.48 618.128 338.056 618.128C338.926 618.128 339.622 618.397 340.144 618.936C340.667 619.469 340.928 620.192 340.928 621.104L340.92 627H339.744ZM329.432 627V618.36H330.488V620.488H330.616V627H329.432ZM334.6 627L334.608 621.408C334.608 620.72 334.424 620.179 334.056 619.784C333.694 619.384 333.214 619.184 332.616 619.184C332.019 619.184 331.536 619.389 331.168 619.8C330.8 620.205 330.616 620.747 330.616 621.424L329.912 621.04C329.912 620.485 330.043 619.989 330.304 619.552C330.566 619.109 330.923 618.763 331.376 618.512C331.83 618.256 332.344 618.128 332.92 618.128C333.47 618.128 333.958 618.245 334.384 618.48C334.816 618.715 335.155 619.056 335.4 619.504C335.646 619.952 335.768 620.496 335.768 621.136L335.76 627H334.6ZM346.883 627.24C346.088 627.24 345.416 627.04 344.867 626.64C344.317 626.235 343.901 625.688 343.619 625C343.336 624.307 343.195 623.531 343.195 622.672C343.195 621.797 343.336 621.019 343.619 620.336C343.907 619.648 344.328 619.107 344.883 618.712C345.437 618.317 346.12 618.12 346.931 618.12C347.72 618.12 348.397 618.32 348.963 618.72C349.528 619.12 349.96 619.664 350.259 620.352C350.563 621.04 350.715 621.813 350.715 622.672C350.715 623.536 350.563 624.312 350.259 625C349.955 625.688 349.517 626.235 348.947 626.64C348.376 627.04 347.688 627.24 346.883 627.24ZM342.995 627V615.48H344.179V620.496H344.051V627H342.995ZM346.763 626.144C347.365 626.144 347.867 625.992 348.267 625.688C348.667 625.384 348.965 624.971 349.163 624.448C349.365 623.92 349.467 623.328 349.467 622.672C349.467 622.021 349.368 621.435 349.171 620.912C348.973 620.389 348.672 619.976 348.267 619.672C347.867 619.368 347.357 619.216 346.739 619.216C346.136 619.216 345.635 619.363 345.235 619.656C344.84 619.949 344.544 620.357 344.347 620.88C344.149 621.397 344.051 621.995 344.051 622.672C344.051 623.339 344.149 623.936 344.347 624.464C344.544 624.987 344.843 625.397 345.243 625.696C345.643 625.995 346.149 626.144 346.763 626.144ZM356.128 627.24C355.285 627.24 354.554 627.053 353.936 626.68C353.322 626.307 352.845 625.781 352.504 625.104C352.162 624.427 351.992 623.632 351.992 622.72C351.992 621.776 352.16 620.96 352.496 620.272C352.832 619.584 353.304 619.053 353.912 618.68C354.525 618.307 355.248 618.12 356.08 618.12C356.933 618.12 357.661 618.317 358.264 618.712C358.866 619.101 359.322 619.661 359.632 620.392C359.941 621.123 360.082 621.995 360.056 623.008H358.856V622.592C358.834 621.472 358.592 620.627 358.128 620.056C357.669 619.485 356.997 619.2 356.112 619.2C355.184 619.2 354.472 619.501 353.976 620.104C353.485 620.707 353.24 621.565 353.24 622.68C353.24 623.768 353.485 624.613 353.976 625.216C354.472 625.813 355.173 626.112 356.08 626.112C356.698 626.112 357.237 625.971 357.696 625.688C358.16 625.4 358.525 624.987 358.792 624.448L359.888 624.872C359.546 625.624 359.042 626.208 358.376 626.624C357.714 627.035 356.965 627.24 356.128 627.24ZM352.824 623.008V622.024H359.424V623.008H352.824ZM361.831 627V618.36H362.887V620.44L362.679 620.168C362.775 619.912 362.9 619.677 363.055 619.464C363.21 619.245 363.378 619.067 363.559 618.928C363.783 618.731 364.044 618.581 364.343 618.48C364.642 618.373 364.943 618.312 365.247 618.296C365.551 618.275 365.828 618.296 366.079 618.36V619.464C365.764 619.384 365.42 619.365 365.047 619.408C364.674 619.451 364.33 619.6 364.015 619.856C363.727 620.08 363.511 620.349 363.367 620.664C363.223 620.973 363.127 621.304 363.079 621.656C363.031 622.003 363.007 622.347 363.007 622.688V627H361.831ZM370.508 627.232C369.495 627.232 368.66 627.013 368.004 626.576C367.353 626.139 366.953 625.531 366.804 624.752L368.004 624.552C368.132 625.043 368.423 625.435 368.876 625.728C369.335 626.016 369.9 626.16 370.572 626.16C371.228 626.16 371.745 626.024 372.124 625.752C372.503 625.475 372.692 625.099 372.692 624.624C372.692 624.357 372.631 624.141 372.508 623.976C372.391 623.805 372.148 623.648 371.78 623.504C371.412 623.36 370.863 623.189 370.132 622.992C369.348 622.779 368.735 622.565 368.292 622.352C367.849 622.139 367.535 621.893 367.348 621.616C367.161 621.333 367.068 620.989 367.068 620.584C367.068 620.093 367.207 619.664 367.484 619.296C367.761 618.923 368.145 618.635 368.636 618.432C369.127 618.224 369.697 618.12 370.348 618.12C370.999 618.12 371.58 618.227 372.092 618.44C372.609 618.648 373.025 618.941 373.34 619.32C373.655 619.699 373.841 620.139 373.9 620.64L372.7 620.856C372.62 620.349 372.367 619.949 371.94 619.656C371.519 619.357 370.983 619.203 370.332 619.192C369.719 619.176 369.22 619.293 368.836 619.544C368.452 619.789 368.26 620.117 368.26 620.528C368.26 620.757 368.329 620.955 368.468 621.12C368.607 621.28 368.857 621.432 369.22 621.576C369.588 621.72 370.111 621.877 370.788 622.048C371.583 622.251 372.207 622.464 372.66 622.688C373.113 622.912 373.436 623.176 373.628 623.48C373.82 623.784 373.916 624.16 373.916 624.608C373.916 625.424 373.612 626.067 373.004 626.536C372.401 627 371.569 627.232 370.508 627.232ZM381.93 627V622.592C381.93 622.112 381.885 621.672 381.794 621.272C381.704 620.867 381.557 620.515 381.354 620.216C381.157 619.912 380.898 619.677 380.578 619.512C380.264 619.347 379.88 619.264 379.426 619.264C379.01 619.264 378.642 619.336 378.322 619.48C378.008 619.624 377.741 619.832 377.522 620.104C377.309 620.371 377.146 620.696 377.034 621.08C376.922 621.464 376.866 621.901 376.866 622.392L376.034 622.208C376.034 621.323 376.189 620.579 376.498 619.976C376.808 619.373 377.234 618.917 377.778 618.608C378.322 618.299 378.946 618.144 379.65 618.144C380.168 618.144 380.618 618.224 381.002 618.384C381.392 618.544 381.72 618.76 381.986 619.032C382.258 619.304 382.477 619.616 382.642 619.968C382.808 620.315 382.928 620.685 383.002 621.08C383.077 621.469 383.114 621.859 383.114 622.248V627H381.93ZM375.682 627V615.48H376.746V621.984H376.866V627H375.682ZM385.35 616.72V615.4H386.526V616.72H385.35ZM385.35 627V618.36H386.526V627H385.35ZM392.805 627.24C392.01 627.24 391.338 627.04 390.789 626.64C390.239 626.235 389.823 625.688 389.541 625C389.258 624.307 389.117 623.531 389.117 622.672C389.117 621.797 389.258 621.019 389.541 620.336C389.829 619.648 390.25 619.107 390.805 618.712C391.359 618.317 392.042 618.12 392.853 618.12C393.642 618.12 394.319 618.32 394.885 618.72C395.45 619.12 395.882 619.664 396.181 620.352C396.485 621.04 396.637 621.813 396.637 622.672C396.637 623.536 396.485 624.312 396.181 625C395.877 625.688 395.439 626.235 394.869 626.64C394.298 627.04 393.61 627.24 392.805 627.24ZM388.917 630.84V618.36H389.973V624.864H390.101V630.84H388.917ZM392.685 626.144C393.287 626.144 393.789 625.992 394.189 625.688C394.589 625.384 394.887 624.971 395.085 624.448C395.287 623.92 395.389 623.328 395.389 622.672C395.389 622.021 395.29 621.435 395.093 620.912C394.895 620.389 394.594 619.976 394.189 619.672C393.789 619.368 393.279 619.216 392.661 619.216C392.058 619.216 391.557 619.363 391.157 619.656C390.762 619.949 390.466 620.357 390.269 620.88C390.071 621.397 389.973 621.995 389.973 622.672C389.973 623.339 390.071 623.936 390.269 624.464C390.466 624.987 390.765 625.397 391.165 625.696C391.565 625.995 392.071 626.144 392.685 626.144ZM398.305 627V625.632H399.673V627H398.305ZM409.347 627.24C408.541 627.24 407.816 627.107 407.171 626.84C406.531 626.568 406 626.184 405.579 625.688C405.163 625.192 404.891 624.603 404.763 623.92L405.963 623.72C406.155 624.467 406.56 625.053 407.179 625.48C407.797 625.901 408.536 626.112 409.395 626.112C409.96 626.112 410.467 626.024 410.915 625.848C411.363 625.667 411.715 625.411 411.971 625.08C412.227 624.749 412.355 624.357 412.355 623.904C412.355 623.605 412.301 623.352 412.195 623.144C412.088 622.931 411.947 622.755 411.771 622.616C411.595 622.477 411.403 622.363 411.195 622.272C410.987 622.176 410.784 622.099 410.587 622.04L407.667 621.168C407.315 621.067 406.989 620.939 406.691 620.784C406.392 620.624 406.131 620.435 405.907 620.216C405.688 619.992 405.517 619.731 405.395 619.432C405.272 619.133 405.211 618.792 405.211 618.408C405.211 617.757 405.381 617.195 405.723 616.72C406.064 616.245 406.531 615.88 407.123 615.624C407.715 615.368 408.389 615.243 409.147 615.248C409.915 615.248 410.6 615.384 411.203 615.656C411.811 615.928 412.312 616.317 412.707 616.824C413.101 617.325 413.363 617.92 413.491 618.608L412.259 618.832C412.179 618.331 411.995 617.896 411.707 617.528C411.419 617.16 411.051 616.877 410.603 616.68C410.16 616.477 409.672 616.373 409.139 616.368C408.621 616.368 408.16 616.456 407.755 616.632C407.355 616.803 407.037 617.037 406.803 617.336C406.568 617.635 406.451 617.976 406.451 618.36C406.451 618.749 406.557 619.061 406.771 619.296C406.989 619.531 407.256 619.715 407.571 619.848C407.891 619.981 408.2 620.091 408.499 620.176L410.755 620.84C410.989 620.904 411.264 620.997 411.579 621.12C411.899 621.237 412.208 621.408 412.507 621.632C412.811 621.851 413.061 622.139 413.259 622.496C413.456 622.853 413.555 623.307 413.555 623.856C413.555 624.389 413.448 624.867 413.235 625.288C413.027 625.709 412.731 626.064 412.347 626.352C411.968 626.64 411.523 626.859 411.011 627.008C410.504 627.163 409.949 627.24 409.347 627.24ZM418.862 627.24C418.019 627.24 417.289 627.053 416.67 626.68C416.057 626.307 415.579 625.781 415.238 625.104C414.897 624.427 414.726 623.632 414.726 622.72C414.726 621.776 414.894 620.96 415.23 620.272C415.566 619.584 416.038 619.053 416.646 618.68C417.259 618.307 417.982 618.12 418.814 618.12C419.667 618.12 420.395 618.317 420.998 618.712C421.601 619.101 422.057 619.661 422.366 620.392C422.675 621.123 422.817 621.995 422.79 623.008H421.59V622.592C421.569 621.472 421.326 620.627 420.862 620.056C420.403 619.485 419.731 619.2 418.846 619.2C417.918 619.2 417.206 619.501 416.71 620.104C416.219 620.707 415.974 621.565 415.974 622.68C415.974 623.768 416.219 624.613 416.71 625.216C417.206 625.813 417.907 626.112 418.814 626.112C419.433 626.112 419.971 625.971 420.43 625.688C420.894 625.4 421.259 624.987 421.526 624.448L422.622 624.872C422.281 625.624 421.777 626.208 421.11 626.624C420.449 627.035 419.699 627.24 418.862 627.24ZM415.558 623.008V622.024H422.158V623.008H415.558ZM429.269 627C428.784 627.101 428.304 627.141 427.829 627.12C427.36 627.099 426.939 626.997 426.565 626.816C426.197 626.635 425.917 626.352 425.725 625.968C425.571 625.648 425.485 625.325 425.469 625C425.459 624.669 425.453 624.293 425.453 623.872V615.96H426.621V623.824C426.621 624.187 426.624 624.491 426.629 624.736C426.64 624.976 426.696 625.189 426.797 625.376C426.989 625.733 427.293 625.947 427.709 626.016C428.131 626.085 428.651 626.069 429.269 625.968V627ZM423.605 619.368V618.36H429.269V619.368H423.605ZM434.276 627.216C433.758 627.216 433.305 627.136 432.916 626.976C432.532 626.816 432.204 626.6 431.932 626.328C431.665 626.056 431.449 625.747 431.284 625.4C431.118 625.048 430.998 624.677 430.924 624.288C430.849 623.893 430.812 623.501 430.812 623.112V618.36H431.996V622.768C431.996 623.243 432.041 623.683 432.132 624.088C432.222 624.493 432.366 624.848 432.564 625.152C432.766 625.451 433.025 625.683 433.34 625.848C433.66 626.013 434.046 626.096 434.5 626.096C434.916 626.096 435.281 626.024 435.596 625.88C435.916 625.736 436.182 625.531 436.396 625.264C436.614 624.992 436.78 624.664 436.892 624.28C437.004 623.891 437.06 623.453 437.06 622.968L437.892 623.152C437.892 624.037 437.737 624.781 437.428 625.384C437.118 625.987 436.692 626.443 436.148 626.752C435.604 627.061 434.98 627.216 434.276 627.216ZM437.18 627V624.872H437.06V618.36H438.236V627H437.18ZM444.352 627.24C443.557 627.24 442.885 627.04 442.336 626.64C441.786 626.235 441.37 625.688 441.088 625C440.805 624.307 440.664 623.531 440.664 622.672C440.664 621.797 440.805 621.019 441.088 620.336C441.376 619.648 441.797 619.107 442.352 618.712C442.906 618.317 443.589 618.12 444.4 618.12C445.189 618.12 445.866 618.32 446.432 618.72C446.997 619.12 447.429 619.664 447.728 620.352C448.032 621.04 448.184 621.813 448.184 622.672C448.184 623.536 448.032 624.312 447.728 625C447.424 625.688 446.986 626.235 446.416 626.64C445.845 627.04 445.157 627.24 444.352 627.24ZM440.464 630.84V618.36H441.52V624.864H441.648V630.84H440.464ZM444.232 626.144C444.834 626.144 445.336 625.992 445.736 625.688C446.136 625.384 446.434 624.971 446.632 624.448C446.834 623.92 446.936 623.328 446.936 622.672C446.936 622.021 446.837 621.435 446.64 620.912C446.442 620.389 446.141 619.976 445.736 619.672C445.336 619.368 444.826 619.216 444.208 619.216C443.605 619.216 443.104 619.363 442.704 619.656C442.309 619.949 442.013 620.357 441.816 620.88C441.618 621.397 441.52 621.995 441.52 622.672C441.52 623.339 441.618 623.936 441.816 624.464C442.013 624.987 442.312 625.397 442.712 625.696C443.112 625.995 443.618 626.144 444.232 626.144ZM455.615 627.24C454.965 627.24 454.418 627.123 453.975 626.888C453.538 626.653 453.21 626.341 452.991 625.952C452.773 625.563 452.663 625.139 452.663 624.68C452.663 624.211 452.757 623.811 452.943 623.48C453.135 623.144 453.394 622.869 453.719 622.656C454.05 622.443 454.431 622.28 454.863 622.168C455.301 622.061 455.783 621.968 456.311 621.888C456.845 621.803 457.365 621.731 457.871 621.672C458.383 621.608 458.831 621.547 459.215 621.488L458.799 621.744C458.815 620.891 458.65 620.259 458.303 619.848C457.957 619.437 457.354 619.232 456.495 619.232C455.903 619.232 455.402 619.365 454.991 619.632C454.586 619.899 454.301 620.32 454.135 620.896L452.991 620.56C453.189 619.787 453.586 619.187 454.183 618.76C454.781 618.333 455.557 618.12 456.511 618.12C457.301 618.12 457.97 618.269 458.519 618.568C459.074 618.861 459.466 619.288 459.695 619.848C459.802 620.099 459.871 620.379 459.903 620.688C459.935 620.997 459.951 621.312 459.951 621.632V627H458.903V624.832L459.207 624.96C458.914 625.701 458.458 626.267 457.839 626.656C457.221 627.045 456.479 627.24 455.615 627.24ZM455.751 626.224C456.301 626.224 456.781 626.125 457.191 625.928C457.602 625.731 457.933 625.461 458.183 625.12C458.434 624.773 458.597 624.384 458.671 623.952C458.735 623.675 458.77 623.371 458.775 623.04C458.781 622.704 458.783 622.453 458.783 622.288L459.231 622.52C458.831 622.573 458.397 622.627 457.927 622.68C457.463 622.733 457.005 622.795 456.551 622.864C456.103 622.933 455.698 623.016 455.335 623.112C455.09 623.181 454.853 623.28 454.623 623.408C454.394 623.531 454.205 623.696 454.055 623.904C453.911 624.112 453.839 624.371 453.839 624.68C453.839 624.931 453.901 625.173 454.023 625.408C454.151 625.643 454.354 625.837 454.631 625.992C454.914 626.147 455.287 626.224 455.751 626.224ZM468.461 627.232C467.448 627.232 466.613 627.013 465.957 626.576C465.307 626.139 464.907 625.531 464.757 624.752L465.957 624.552C466.085 625.043 466.376 625.435 466.829 625.728C467.288 626.016 467.853 626.16 468.525 626.16C469.181 626.16 469.699 626.024 470.077 625.752C470.456 625.475 470.645 625.099 470.645 624.624C470.645 624.357 470.584 624.141 470.461 623.976C470.344 623.805 470.101 623.648 469.733 623.504C469.365 623.36 468.816 623.189 468.085 622.992C467.301 622.779 466.688 622.565 466.245 622.352C465.803 622.139 465.488 621.893 465.301 621.616C465.115 621.333 465.021 620.989 465.021 620.584C465.021 620.093 465.16 619.664 465.437 619.296C465.715 618.923 466.099 618.635 466.589 618.432C467.08 618.224 467.651 618.12 468.301 618.12C468.952 618.12 469.533 618.227 470.045 618.44C470.563 618.648 470.979 618.941 471.293 619.32C471.608 619.699 471.795 620.139 471.853 620.64L470.653 620.856C470.573 620.349 470.32 619.949 469.893 619.656C469.472 619.357 468.936 619.203 468.285 619.192C467.672 619.176 467.173 619.293 466.789 619.544C466.405 619.789 466.213 620.117 466.213 620.528C466.213 620.757 466.283 620.955 466.421 621.12C466.56 621.28 466.811 621.432 467.173 621.576C467.541 621.72 468.064 621.877 468.741 622.048C469.536 622.251 470.16 622.464 470.613 622.688C471.067 622.912 471.389 623.176 471.581 623.48C471.773 623.784 471.869 624.16 471.869 624.608C471.869 625.424 471.565 626.067 470.957 626.536C470.355 627 469.523 627.232 468.461 627.232ZM479.883 627V622.592C479.883 622.112 479.838 621.672 479.747 621.272C479.657 620.867 479.51 620.515 479.307 620.216C479.11 619.912 478.851 619.677 478.531 619.512C478.217 619.347 477.833 619.264 477.379 619.264C476.963 619.264 476.595 619.336 476.275 619.48C475.961 619.624 475.694 619.832 475.475 620.104C475.262 620.371 475.099 620.696 474.987 621.08C474.875 621.464 474.819 621.901 474.819 622.392L473.987 622.208C473.987 621.323 474.142 620.579 474.451 619.976C474.761 619.373 475.187 618.917 475.731 618.608C476.275 618.299 476.899 618.144 477.603 618.144C478.121 618.144 478.571 618.224 478.955 618.384C479.345 618.544 479.673 618.76 479.939 619.032C480.211 619.304 480.43 619.616 480.595 619.968C480.761 620.315 480.881 620.685 480.955 621.08C481.03 621.469 481.067 621.859 481.067 622.248V627H479.883ZM473.635 627V615.48H474.699V621.984H474.819V627H473.635ZM486.751 627.24C485.893 627.24 485.159 627.045 484.551 626.656C483.943 626.267 483.477 625.728 483.151 625.04C482.826 624.352 482.663 623.563 482.663 622.672C482.663 621.765 482.829 620.971 483.159 620.288C483.49 619.605 483.959 619.075 484.567 618.696C485.181 618.312 485.909 618.12 486.751 618.12C487.615 618.12 488.351 618.315 488.959 618.704C489.573 619.088 490.039 619.624 490.359 620.312C490.685 620.995 490.847 621.781 490.847 622.672C490.847 623.579 490.685 624.376 490.359 625.064C490.034 625.747 489.565 626.28 488.951 626.664C488.338 627.048 487.605 627.24 486.751 627.24ZM486.751 626.112C487.711 626.112 488.426 625.795 488.895 625.16C489.365 624.52 489.599 623.691 489.599 622.672C489.599 621.627 489.362 620.795 488.887 620.176C488.418 619.557 487.706 619.248 486.751 619.248C486.106 619.248 485.573 619.395 485.151 619.688C484.735 619.976 484.423 620.379 484.215 620.896C484.013 621.408 483.911 622 483.911 622.672C483.911 623.712 484.151 624.547 484.631 625.176C485.111 625.8 485.818 626.112 486.751 626.112ZM496.492 627.24C495.698 627.24 495.026 627.04 494.476 626.64C493.927 626.235 493.511 625.688 493.228 625C492.946 624.307 492.804 623.531 492.804 622.672C492.804 621.797 492.946 621.019 493.228 620.336C493.516 619.648 493.938 619.107 494.492 618.712C495.047 618.317 495.73 618.12 496.54 618.12C497.33 618.12 498.007 618.32 498.572 618.72C499.138 619.12 499.57 619.664 499.868 620.352C500.172 621.04 500.324 621.813 500.324 622.672C500.324 623.536 500.172 624.312 499.868 625C499.564 625.688 499.127 626.235 498.556 626.64C497.986 627.04 497.298 627.24 496.492 627.24ZM492.604 630.84V618.36H493.66V624.864H493.788V630.84H492.604ZM496.372 626.144C496.975 626.144 497.476 625.992 497.876 625.688C498.276 625.384 498.575 624.971 498.772 624.448C498.975 623.92 499.076 623.328 499.076 622.672C499.076 622.021 498.978 621.435 498.78 620.912C498.583 620.389 498.282 619.976 497.876 619.672C497.476 619.368 496.967 619.216 496.348 619.216C495.746 619.216 495.244 619.363 494.844 619.656C494.45 619.949 494.154 620.357 493.956 620.88C493.759 621.397 493.66 621.995 493.66 622.672C493.66 623.339 493.759 623.936 493.956 624.464C494.154 624.987 494.452 625.397 494.852 625.696C495.252 625.995 495.759 626.144 496.372 626.144ZM501.992 627V625.632H503.36V627H501.992ZM509.194 627V615.48H510.37V627H509.194ZM517.472 627C516.987 627.101 516.507 627.141 516.032 627.12C515.563 627.099 515.142 626.997 514.768 626.816C514.4 626.635 514.12 626.352 513.928 625.968C513.774 625.648 513.688 625.325 513.672 625C513.662 624.669 513.656 624.293 513.656 623.872V615.96H514.824V623.824C514.824 624.187 514.827 624.491 514.832 624.736C514.843 624.976 514.899 625.189 515 625.376C515.192 625.733 515.496 625.947 515.912 626.016C516.334 626.085 516.854 626.069 517.472 625.968V627ZM511.808 619.368V618.36H517.472V619.368H511.808ZM519.175 618.84L519.247 618.256C519.46 618.272 519.615 618.229 519.711 618.128C519.807 618.027 519.865 617.891 519.887 617.72C519.908 617.549 519.913 617.365 519.903 617.168H519.175V615.48H520.543V617.488C520.543 617.979 520.417 618.347 520.167 618.592C519.921 618.837 519.591 618.92 519.175 618.84ZM524.664 627.232C523.651 627.232 522.816 627.013 522.16 626.576C521.51 626.139 521.11 625.531 520.96 624.752L522.16 624.552C522.288 625.043 522.579 625.435 523.032 625.728C523.491 626.016 524.056 626.16 524.728 626.16C525.384 626.16 525.902 626.024 526.28 625.752C526.659 625.475 526.848 625.099 526.848 624.624C526.848 624.357 526.787 624.141 526.664 623.976C526.547 623.805 526.304 623.648 525.936 623.504C525.568 623.36 525.019 623.189 524.288 622.992C523.504 622.779 522.891 622.565 522.448 622.352C522.006 622.139 521.691 621.893 521.504 621.616C521.318 621.333 521.224 620.989 521.224 620.584C521.224 620.093 521.363 619.664 521.64 619.296C521.918 618.923 522.302 618.635 522.792 618.432C523.283 618.224 523.854 618.12 524.504 618.12C525.155 618.12 525.736 618.227 526.248 618.44C526.766 618.648 527.182 618.941 527.496 619.32C527.811 619.699 527.998 620.139 528.056 620.64L526.856 620.856C526.776 620.349 526.523 619.949 526.096 619.656C525.675 619.357 525.139 619.203 524.488 619.192C523.875 619.176 523.376 619.293 522.992 619.544C522.608 619.789 522.416 620.117 522.416 620.528C522.416 620.757 522.486 620.955 522.624 621.12C522.763 621.28 523.014 621.432 523.376 621.576C523.744 621.72 524.267 621.877 524.944 622.048C525.739 622.251 526.363 622.464 526.816 622.688C527.27 622.912 527.592 623.176 527.784 623.48C527.976 623.784 528.072 624.16 528.072 624.608C528.072 625.424 527.768 626.067 527.16 626.536C526.558 627 525.726 627.232 524.664 627.232ZM536.706 627.24C535.863 627.24 535.132 627.053 534.514 626.68C533.9 626.307 533.423 625.781 533.082 625.104C532.74 624.427 532.57 623.632 532.57 622.72C532.57 621.776 532.738 620.96 533.074 620.272C533.41 619.584 533.882 619.053 534.49 618.68C535.103 618.307 535.826 618.12 536.658 618.12C537.511 618.12 538.239 618.317 538.842 618.712C539.444 619.101 539.9 619.661 540.21 620.392C540.519 621.123 540.66 621.995 540.634 623.008H539.434V622.592C539.412 621.472 539.17 620.627 538.706 620.056C538.247 619.485 537.575 619.2 536.69 619.2C535.762 619.2 535.05 619.501 534.554 620.104C534.063 620.707 533.818 621.565 533.818 622.68C533.818 623.768 534.063 624.613 534.554 625.216C535.05 625.813 535.751 626.112 536.658 626.112C537.276 626.112 537.815 625.971 538.274 625.688C538.738 625.4 539.103 624.987 539.37 624.448L540.466 624.872C540.124 625.624 539.62 626.208 538.954 626.624C538.292 627.035 537.543 627.24 536.706 627.24ZM533.402 623.008V622.024H540.002V623.008H533.402ZM544.725 627.24C544.074 627.24 543.527 627.123 543.085 626.888C542.647 626.653 542.319 626.341 542.101 625.952C541.882 625.563 541.773 625.139 541.773 624.68C541.773 624.211 541.866 623.811 542.053 623.48C542.245 623.144 542.503 622.869 542.829 622.656C543.159 622.443 543.541 622.28 543.973 622.168C544.41 622.061 544.893 621.968 545.421 621.888C545.954 621.803 546.474 621.731 546.981 621.672C547.493 621.608 547.941 621.547 548.325 621.488L547.909 621.744C547.925 620.891 547.759 620.259 547.413 619.848C547.066 619.437 546.463 619.232 545.605 619.232C545.013 619.232 544.511 619.365 544.101 619.632C543.695 619.899 543.41 620.32 543.245 620.896L542.101 620.56C542.298 619.787 542.695 619.187 543.293 618.76C543.89 618.333 544.666 618.12 545.621 618.12C546.41 618.12 547.079 618.269 547.629 618.568C548.183 618.861 548.575 619.288 548.805 619.848C548.911 620.099 548.981 620.379 549.013 620.688C549.045 620.997 549.061 621.312 549.061 621.632V627H548.013V624.832L548.317 624.96C548.023 625.701 547.567 626.267 546.949 626.656C546.33 627.045 545.589 627.24 544.725 627.24ZM544.861 626.224C545.41 626.224 545.89 626.125 546.301 625.928C546.711 625.731 547.042 625.461 547.293 625.12C547.543 624.773 547.706 624.384 547.781 623.952C547.845 623.675 547.879 623.371 547.885 623.04C547.89 622.704 547.893 622.453 547.893 622.288L548.341 622.52C547.941 622.573 547.506 622.627 547.037 622.68C546.573 622.733 546.114 622.795 545.661 622.864C545.213 622.933 544.807 623.016 544.445 623.112C544.199 623.181 543.962 623.28 543.733 623.408C543.503 623.531 543.314 623.696 543.165 623.904C543.021 624.112 542.949 624.371 542.949 624.68C542.949 624.931 543.01 625.173 543.133 625.408C543.261 625.643 543.463 625.837 543.741 625.992C544.023 626.147 544.397 626.224 544.861 626.224ZM554.367 627.232C553.354 627.232 552.519 627.013 551.863 626.576C551.213 626.139 550.813 625.531 550.663 624.752L551.863 624.552C551.991 625.043 552.282 625.435 552.735 625.728C553.194 626.016 553.759 626.16 554.431 626.16C555.087 626.16 555.605 626.024 555.983 625.752C556.362 625.475 556.551 625.099 556.551 624.624C556.551 624.357 556.49 624.141 556.367 623.976C556.25 623.805 556.007 623.648 555.639 623.504C555.271 623.36 554.722 623.189 553.991 622.992C553.207 622.779 552.594 622.565 552.151 622.352C551.709 622.139 551.394 621.893 551.207 621.616C551.021 621.333 550.927 620.989 550.927 620.584C550.927 620.093 551.066 619.664 551.343 619.296C551.621 618.923 552.005 618.635 552.495 618.432C552.986 618.224 553.557 618.12 554.207 618.12C554.858 618.12 555.439 618.227 555.951 618.44C556.469 618.648 556.885 618.941 557.199 619.32C557.514 619.699 557.701 620.139 557.759 620.64L556.559 620.856C556.479 620.349 556.226 619.949 555.799 619.656C555.378 619.357 554.842 619.203 554.191 619.192C553.578 619.176 553.079 619.293 552.695 619.544C552.311 619.789 552.119 620.117 552.119 620.528C552.119 620.757 552.189 620.955 552.327 621.12C552.466 621.28 552.717 621.432 553.079 621.576C553.447 621.72 553.97 621.877 554.647 622.048C555.442 622.251 556.066 622.464 556.519 622.688C556.973 622.912 557.295 623.176 557.487 623.48C557.679 623.784 557.775 624.16 557.775 624.608C557.775 625.424 557.471 626.067 556.863 626.536C556.261 627 555.429 627.232 554.367 627.232ZM559.71 616.72V615.4H560.886V616.72H559.71ZM559.71 627V618.36H560.886V627H559.71ZM566.94 627.24C566.097 627.24 565.367 627.053 564.748 626.68C564.135 626.307 563.657 625.781 563.316 625.104C562.975 624.427 562.804 623.632 562.804 622.72C562.804 621.776 562.972 620.96 563.308 620.272C563.644 619.584 564.116 619.053 564.724 618.68C565.337 618.307 566.06 618.12 566.892 618.12C567.745 618.12 568.473 618.317 569.076 618.712C569.679 619.101 570.135 619.661 570.444 620.392C570.753 621.123 570.895 621.995 570.868 623.008H569.668V622.592C569.647 621.472 569.404 620.627 568.94 620.056C568.481 619.485 567.809 619.2 566.924 619.2C565.996 619.2 565.284 619.501 564.788 620.104C564.297 620.707 564.052 621.565 564.052 622.68C564.052 623.768 564.297 624.613 564.788 625.216C565.284 625.813 565.985 626.112 566.892 626.112C567.511 626.112 568.049 625.971 568.508 625.688C568.972 625.4 569.337 624.987 569.604 624.448L570.7 624.872C570.359 625.624 569.855 626.208 569.188 626.624C568.527 627.035 567.777 627.24 566.94 627.24ZM563.636 623.008V622.024H570.236V623.008H563.636ZM572.643 627V618.36H573.699V620.44L573.491 620.168C573.587 619.912 573.713 619.677 573.867 619.464C574.022 619.245 574.19 619.067 574.371 618.928C574.595 618.731 574.857 618.581 575.155 618.48C575.454 618.373 575.755 618.312 576.059 618.296C576.363 618.275 576.641 618.296 576.891 618.36V619.464C576.577 619.384 576.233 619.365 575.859 619.408C575.486 619.451 575.142 619.6 574.827 619.856C574.539 620.08 574.323 620.349 574.179 620.664C574.035 620.973 573.939 621.304 573.891 621.656C573.843 622.003 573.819 622.347 573.819 622.688V627H572.643ZM305.855 651C305.37 651.101 304.89 651.141 304.415 651.12C303.946 651.099 303.525 650.997 303.151 650.816C302.783 650.635 302.503 650.352 302.311 649.968C302.157 649.648 302.071 649.325 302.055 649C302.045 648.669 302.039 648.293 302.039 647.872V639.96H303.207V647.824C303.207 648.187 303.21 648.491 303.215 648.736C303.226 648.976 303.282 649.189 303.383 649.376C303.575 649.733 303.879 649.947 304.295 650.016C304.717 650.085 305.237 650.069 305.855 649.968V651ZM300.191 643.368V642.36H305.855V643.368H300.191ZM313.798 651V646.592C313.798 646.112 313.752 645.672 313.662 645.272C313.571 644.867 313.424 644.515 313.222 644.216C313.024 643.912 312.766 643.677 312.446 643.512C312.131 643.347 311.747 643.264 311.294 643.264C310.878 643.264 310.51 643.336 310.19 643.48C309.875 643.624 309.608 643.832 309.39 644.104C309.176 644.371 309.014 644.696 308.902 645.08C308.79 645.464 308.734 645.901 308.734 646.392L307.902 646.208C307.902 645.323 308.056 644.579 308.366 643.976C308.675 643.373 309.102 642.917 309.646 642.608C310.19 642.299 310.814 642.144 311.518 642.144C312.035 642.144 312.486 642.224 312.87 642.384C313.259 642.544 313.587 642.76 313.854 643.032C314.126 643.304 314.344 643.616 314.51 643.968C314.675 644.315 314.795 644.685 314.87 645.08C314.944 645.469 314.982 645.859 314.982 646.248V651H313.798ZM307.55 651V639.48H308.614V645.984H308.734V651H307.55ZM319.53 651.24C318.879 651.24 318.332 651.123 317.89 650.888C317.452 650.653 317.124 650.341 316.906 649.952C316.687 649.563 316.578 649.139 316.578 648.68C316.578 648.211 316.671 647.811 316.858 647.48C317.05 647.144 317.308 646.869 317.634 646.656C317.964 646.443 318.346 646.28 318.778 646.168C319.215 646.061 319.698 645.968 320.226 645.888C320.759 645.803 321.279 645.731 321.786 645.672C322.298 645.608 322.746 645.547 323.13 645.488L322.714 645.744C322.73 644.891 322.564 644.259 322.218 643.848C321.871 643.437 321.268 643.232 320.41 643.232C319.818 643.232 319.316 643.365 318.906 643.632C318.5 643.899 318.215 644.32 318.049 644.896L316.906 644.56C317.103 643.787 317.5 643.187 318.098 642.76C318.695 642.333 319.471 642.12 320.426 642.12C321.215 642.12 321.884 642.269 322.434 642.568C322.988 642.861 323.38 643.288 323.61 643.848C323.716 644.099 323.786 644.379 323.818 644.688C323.85 644.997 323.866 645.312 323.866 645.632V651H322.818V648.832L323.122 648.96C322.828 649.701 322.372 650.267 321.754 650.656C321.135 651.045 320.394 651.24 319.53 651.24ZM319.666 650.224C320.215 650.224 320.695 650.125 321.106 649.928C321.516 649.731 321.847 649.461 322.098 649.12C322.348 648.773 322.511 648.384 322.586 647.952C322.65 647.675 322.684 647.371 322.69 647.04C322.695 646.704 322.698 646.453 322.698 646.288L323.146 646.52C322.746 646.573 322.311 646.627 321.842 646.68C321.378 646.733 320.919 646.795 320.466 646.864C320.018 646.933 319.612 647.016 319.25 647.112C319.004 647.181 318.767 647.28 318.538 647.408C318.308 647.531 318.119 647.696 317.97 647.904C317.826 648.112 317.754 648.371 317.754 648.68C317.754 648.931 317.815 649.173 317.938 649.408C318.066 649.643 318.268 649.837 318.546 649.992C318.828 650.147 319.202 650.224 319.666 650.224ZM332.188 651V646.592C332.188 646.112 332.143 645.672 332.052 645.272C331.961 644.867 331.815 644.515 331.612 644.216C331.415 643.912 331.156 643.677 330.836 643.512C330.521 643.347 330.137 643.264 329.684 643.264C329.268 643.264 328.9 643.336 328.58 643.48C328.265 643.624 327.999 643.832 327.78 644.104C327.567 644.371 327.404 644.696 327.292 645.08C327.18 645.464 327.124 645.901 327.124 646.392L326.292 646.208C326.292 645.323 326.447 644.579 326.756 643.976C327.065 643.373 327.492 642.917 328.036 642.608C328.58 642.299 329.204 642.144 329.908 642.144C330.425 642.144 330.876 642.224 331.26 642.384C331.649 642.544 331.977 642.76 332.244 643.032C332.516 643.304 332.735 643.616 332.9 643.968C333.065 644.315 333.185 644.685 333.26 645.08C333.335 645.469 333.372 645.859 333.372 646.248V651H332.188ZM325.94 651V642.36H327.004V644.488H327.124V651H325.94ZM339.883 654.84L341.555 650.304L341.579 651.648L337.795 642.36H339.043L342.147 650.128H341.635L344.499 642.36H345.699L341.059 654.84H339.883ZM350.384 651.24C349.526 651.24 348.792 651.045 348.184 650.656C347.576 650.267 347.11 649.728 346.784 649.04C346.459 648.352 346.296 647.563 346.296 646.672C346.296 645.765 346.462 644.971 346.792 644.288C347.123 643.605 347.592 643.075 348.2 642.696C348.814 642.312 349.542 642.12 350.384 642.12C351.248 642.12 351.984 642.315 352.592 642.704C353.206 643.088 353.672 643.624 353.992 644.312C354.318 644.995 354.48 645.781 354.48 646.672C354.48 647.579 354.318 648.376 353.992 649.064C353.667 649.747 353.198 650.28 352.584 650.664C351.971 651.048 351.238 651.24 350.384 651.24ZM350.384 650.112C351.344 650.112 352.059 649.795 352.528 649.16C352.998 648.52 353.232 647.691 353.232 646.672C353.232 645.627 352.995 644.795 352.52 644.176C352.051 643.557 351.339 643.248 350.384 643.248C349.739 643.248 349.206 643.395 348.784 643.688C348.368 643.976 348.056 644.379 347.848 644.896C347.646 645.408 347.544 646 347.544 646.672C347.544 647.712 347.784 648.547 348.264 649.176C348.744 649.8 349.451 650.112 350.384 650.112ZM359.549 651.216C359.032 651.216 358.578 651.136 358.189 650.976C357.805 650.816 357.477 650.6 357.205 650.328C356.938 650.056 356.722 649.747 356.557 649.4C356.392 649.048 356.272 648.677 356.197 648.288C356.122 647.893 356.085 647.501 356.085 647.112V642.36H357.269V646.768C357.269 647.243 357.314 647.683 357.405 648.088C357.496 648.493 357.64 648.848 357.837 649.152C358.04 649.451 358.298 649.683 358.613 649.848C358.933 650.013 359.32 650.096 359.773 650.096C360.189 650.096 360.554 650.024 360.869 649.88C361.189 649.736 361.456 649.531 361.669 649.264C361.888 648.992 362.053 648.664 362.165 648.28C362.277 647.891 362.333 647.453 362.333 646.968L363.165 647.152C363.165 648.037 363.01 648.781 362.701 649.384C362.392 649.987 361.965 650.443 361.421 650.752C360.877 651.061 360.253 651.216 359.549 651.216ZM362.453 651V648.872H362.333V642.36H363.509V651H362.453ZM373.652 651C373.167 651.101 372.687 651.141 372.212 651.12C371.743 651.099 371.321 650.997 370.948 650.816C370.58 650.635 370.3 650.352 370.108 649.968C369.953 649.648 369.868 649.325 369.852 649C369.841 648.669 369.836 648.293 369.836 647.872V639.96H371.004V647.824C371.004 648.187 371.007 648.491 371.012 648.736C371.023 648.976 371.079 649.189 371.18 649.376C371.372 649.733 371.676 649.947 372.092 650.016C372.513 650.085 373.033 650.069 373.652 649.968V651ZM367.988 643.368V642.36H373.652V643.368H367.988ZM381.594 651V646.592C381.594 646.112 381.549 645.672 381.458 645.272C381.368 644.867 381.221 644.515 381.018 644.216C380.821 643.912 380.562 643.677 380.242 643.512C379.928 643.347 379.544 643.264 379.09 643.264C378.674 643.264 378.306 643.336 377.986 643.48C377.672 643.624 377.405 643.832 377.186 644.104C376.973 644.371 376.81 644.696 376.698 645.08C376.586 645.464 376.53 645.901 376.53 646.392L375.698 646.208C375.698 645.323 375.853 644.579 376.162 643.976C376.472 643.373 376.898 642.917 377.442 642.608C377.986 642.299 378.61 642.144 379.314 642.144C379.832 642.144 380.282 642.224 380.666 642.384C381.056 642.544 381.384 642.76 381.65 643.032C381.922 643.304 382.141 643.616 382.306 643.968C382.472 644.315 382.592 644.685 382.666 645.08C382.741 645.469 382.778 645.859 382.778 646.248V651H381.594ZM375.346 651V639.48H376.41V645.984H376.53V651H375.346ZM385.014 640.72V639.4H386.19V640.72H385.014ZM385.014 651V642.36H386.19V651H385.014ZM394.829 651V646.592C394.829 646.112 394.783 645.672 394.693 645.272C394.602 644.867 394.455 644.515 394.253 644.216C394.055 643.912 393.797 643.677 393.477 643.512C393.162 643.347 392.778 643.264 392.325 643.264C391.909 643.264 391.541 643.336 391.221 643.48C390.906 643.624 390.639 643.832 390.421 644.104C390.207 644.371 390.045 644.696 389.933 645.08C389.821 645.464 389.765 645.901 389.765 646.392L388.933 646.208C388.933 645.323 389.087 644.579 389.397 643.976C389.706 643.373 390.133 642.917 390.677 642.608C391.221 642.299 391.845 642.144 392.549 642.144C393.066 642.144 393.517 642.224 393.901 642.384C394.29 642.544 394.618 642.76 394.885 643.032C395.157 643.304 395.375 643.616 395.541 643.968C395.706 644.315 395.826 644.685 395.901 645.08C395.975 645.469 396.013 645.859 396.013 646.248V651H394.829ZM388.581 651V642.36H389.645V644.488H389.765V651H388.581ZM398.081 651L398.089 639.48H399.273V646.52L403.129 642.36H404.697L400.649 646.68L405.225 651H403.513L399.273 646.84V651H398.081ZM406.25 651V649.632H407.618V651H406.25Z" fill="#09090B"/>
</svg>
